<svg width="26" height="147" viewBox="0 0 26 147" fill="none" xmlns="http://www.w3.org/2000/svg">
<rect x="0.0332031" width="5.06481" height="2" fill="#C0C0C0"/>
<rect x="20.293" width="5.06481" height="2" fill="#C0C0C0"/>
<rect x="0.0332031" y="12.0078" width="5.06481" height="2" fill="#EBEBEB"/>
<rect x="20.293" y="12.0078" width="5.06481" height="2" fill="#EBEBEB"/>
<rect x="0.0332031" y="24.0078" width="5.06481" height="2" fill="#C0C0C0"/>
<rect x="20.293" y="24.0078" width="5.06481" height="2" fill="#C0C0C0"/>
<rect x="0.0332031" y="36" width="5.06481" height="2" fill="#EBEBEB"/>
<rect x="20.293" y="36" width="5.06481" height="2" fill="#EBEBEB"/>
<rect x="0.0332031" y="48.0156" width="5.06481" height="2" fill="#C0C0C0"/>
<rect x="20.293" y="48.0156" width="5.06481" height="2" fill="#C0C0C0"/>
<rect x="0.0332031" y="60.0078" width="5.06481" height="2" fill="#EBEBEB"/>
<rect x="20.293" y="60.0078" width="5.06481" height="2" fill="#EBEBEB"/>
<rect x="0.0332031" y="72.0156" width="5.06481" height="2" fill="#C0C0C0"/>
<rect x="20.293" y="72.0156" width="5.06481" height="2" fill="#C0C0C0"/>
<rect x="0.0332031" y="84.0078" width="5.06481" height="2" fill="#EBEBEB"/>
<rect x="20.293" y="84.0078" width="5.06481" height="2" fill="#EBEBEB"/>
<rect x="0.0332031" y="96.0156" width="5.06481" height="2" fill="#C0C0C0"/>
<rect x="20.293" y="96.0156" width="5.06481" height="2" fill="#C0C0C0"/>
<rect x="0.0332031" y="108.016" width="5.06481" height="2" fill="#EBEBEB"/>
<rect x="20.293" y="108.016" width="5.06481" height="2" fill="#EBEBEB"/>
<rect x="0.0332031" y="120.016" width="5.06481" height="2" fill="#C0C0C0"/>
<rect x="20.293" y="120.016" width="5.06481" height="2" fill="#C0C0C0"/>
<rect x="0.0332031" y="132.016" width="5.06481" height="2" fill="#EBEBEB"/>
<rect x="20.293" y="132.016" width="5.06481" height="2" fill="#EBEBEB"/>
<rect x="0.0332031" y="144.016" width="5.06481" height="2" fill="#C0C0C0"/>
<rect x="20.293" y="144.016" width="5.06481" height="2" fill="#C0C0C0"/>
</svg>
