<svg width="167" height="36" viewBox="0 0 167 36" fill="none" xmlns="http://www.w3.org/2000/svg">
<path d="M68.0005 4C68.0005 1.79086 69.7914 0 72.0005 0H154.317C155.748 0 157.069 0.763712 157.783 2.00302L165.85 16.003C166.562 17.2391 166.562 18.7609 165.85 19.997L157.783 33.997C157.069 35.2363 155.748 36 154.317 36H72.0005C69.7914 36 68.0005 34.2091 68.0005 32V4Z" fill="white"/>
<path d="M0.371094 4.00095C0.371094 1.79181 2.16195 0.000946045 4.37109 0.000946045H86.6879C88.1183 0.000946045 89.4397 0.764658 90.1538 2.00396L98.2204 16.004C98.9327 17.24 98.9327 18.7619 98.2205 19.9979L90.1538 33.9979C89.4397 35.2372 88.1182 36.0009 86.6879 36.0009H4.37109C2.16195 36.0009 0.371094 34.2101 0.371094 32.0009V4.00095Z" fill="white"/>
</svg>
