<svg width="34" height="32" viewBox="0 0 34 32" fill="none" xmlns="http://www.w3.org/2000/svg">
<path d="M8.27188 4C8.27188 2.12223 9.79411 0.6 11.6719 0.6H25.4681L32.4045 7.55247V28C32.4045 29.8778 30.8823 31.4 29.0045 31.4H11.6719C9.79411 31.4 8.27188 29.8778 8.27188 28V4Z" fill="#F3F7FC" stroke="#8B91A1" stroke-width="1.2" stroke-linejoin="round"/>
<rect y="12" width="27" height="14" rx="2" fill="#295699"/>
<path d="M3.90463 22.2969L1.98422 15.5801H3.5057L4.63754 20.2744H4.6932L5.92709 15.5801H7.2352L8.46908 20.2837H8.52475L9.65658 15.5801H11.1781L9.25766 22.2969H7.89389L6.61361 17.8623H6.55795L5.2684 22.2969H3.90463ZM13.3909 22.3989C11.8694 22.3943 10.9185 21.3506 10.9231 19.792C10.9185 18.238 11.8694 17.1943 13.3909 17.1943C14.917 17.1943 15.8633 18.238 15.8679 19.792C15.8633 21.3506 14.917 22.3943 13.3909 22.3989ZM12.3147 19.792C12.3147 20.6733 12.6812 21.3274 13.4002 21.332C14.1006 21.3274 14.4717 20.6733 14.4671 19.792C14.4717 18.906 14.1006 18.2427 13.4002 18.2427C12.6812 18.2427 12.3147 18.906 12.3147 19.792ZM16.5407 22.2969V17.2593H17.8674V18.1313H17.9231C18.104 17.5144 18.5725 17.1851 19.1384 17.1851C19.2776 17.1851 19.4538 17.2036 19.5744 17.2314V18.4561C19.4446 18.4143 19.1801 18.3818 18.99 18.3818C18.3684 18.3818 17.9092 18.8132 17.9138 19.4302V22.2969H16.5407ZM21.7502 22.3804C20.5998 22.3804 19.6999 21.4666 19.6999 19.7827C19.6999 18.0571 20.6369 17.1943 21.7502 17.1943C22.5944 17.1943 22.998 17.6953 23.1789 18.1035H23.2253V15.5801H24.5983V22.2969H23.2438V21.4897H23.1789C22.9887 21.9072 22.5712 22.3804 21.7502 22.3804ZM21.11 19.7734C21.1054 20.6641 21.4811 21.281 22.1769 21.2856C22.8634 21.281 23.2531 20.6826 23.2531 19.7734C23.2531 18.8689 22.8681 18.2891 22.1769 18.2891C21.4765 18.2891 21.1054 18.8967 21.11 19.7734Z" fill="white"/>
</svg>
