<svg width="34" height="32" viewBox="0 0 34 32" fill="none" xmlns="http://www.w3.org/2000/svg">
<path d="M8.27188 4C8.27188 2.12223 9.79411 0.6 11.6719 0.6H25.4681L32.4045 7.55247V28C32.4045 29.8778 30.8823 31.4 29.0045 31.4H11.6719C9.79411 31.4 8.27188 29.8778 8.27188 28V4Z" fill="#F3F7FC" stroke="#8B91A1" stroke-width="1.2" stroke-linejoin="round"/>
<rect y="12" width="27" height="14" rx="2" fill="#D71920"/>
<path d="M5.294 22.2969V15.5801H7.92877C9.45489 15.5801 10.3316 16.5217 10.3316 17.8438C10.3316 19.1843 9.44098 20.1074 7.89166 20.1074H6.68561V22.2969H5.294ZM6.68561 18.9849H7.669C8.49469 18.9849 8.89825 18.521 8.89361 17.8438C8.89825 17.1758 8.49469 16.7258 7.669 16.7212H6.68561V18.9849ZM13.3887 22.2969H11.0229V15.5801H13.4165C15.439 15.5801 16.6775 16.8372 16.6729 18.9292C16.6775 21.0305 15.439 22.2969 13.3887 22.2969ZM12.4146 21.1001H13.333C14.6133 21.1001 15.2812 20.4368 15.2812 18.9292C15.2812 17.4355 14.6133 16.7769 13.3423 16.7769H12.4146V21.1001ZM17.4941 22.2969V15.5801H21.9194V16.7305H18.8857V18.3633H21.6318V19.5137H18.8857V22.2969H17.4941Z" fill="white"/>
</svg>
