<svg width="34" height="32" viewBox="0 0 34 32" fill="none" xmlns="http://www.w3.org/2000/svg">
<path d="M8.27188 4C8.27188 2.12223 9.79411 0.6 11.6719 0.6H25.4681L32.4045 7.55247V28C32.4045 29.8778 30.8823 31.4 29.0045 31.4H11.6719C9.79411 31.4 8.27188 29.8778 8.27188 28V4Z" fill="#F3F7FC" stroke="#8B91A1" stroke-width="1.2" stroke-linejoin="round"/>
<rect y="12" width="27" height="14" rx="2" fill="#2E3192"/>
<path d="M7.90094 15.5801H9.28326V20.2651C9.28326 21.5686 8.36017 22.3896 7.01031 22.3896C5.79498 22.3896 4.84405 21.7495 4.84869 20.4229H6.24029C6.24957 20.9563 6.57428 21.2671 7.07525 21.2671C7.6087 21.2671 7.90094 20.9238 7.90094 20.2651V15.5801ZM10.2251 22.2969V15.5801H12.8599C14.386 15.5801 15.2627 16.5217 15.2627 17.8438C15.2627 19.1843 14.3721 20.1074 12.8228 20.1074H11.6167V22.2969H10.2251ZM11.6167 18.9849H12.6001C13.4258 18.9849 13.8293 18.521 13.8247 17.8438C13.8293 17.1758 13.4258 16.7258 12.6001 16.7212H11.6167V18.9849ZM20.4164 17.7417C20.2263 17.1108 19.7206 16.7258 18.9877 16.7212C17.9487 16.7258 17.2436 17.519 17.2436 18.9292C17.2436 20.3486 17.9255 21.1511 18.997 21.1558C19.9572 21.1511 20.5278 20.6084 20.5463 19.7642H19.0898V18.7158H21.8915V19.5508C21.8915 21.3135 20.6808 22.3896 18.9877 22.3896C17.1044 22.3896 15.8242 21.0723 15.8242 18.9478C15.8242 16.7676 17.1879 15.4873 18.9599 15.4873C20.4767 15.4873 21.6411 16.4197 21.8266 17.7417H20.4164Z" fill="white"/>
</svg>
