<svg width="27" height="26" viewBox="0 0 27 26" fill="none" xmlns="http://www.w3.org/2000/svg">
<rect x="0.957031" width="26" height="26" rx="13" fill="#F3F7FC"/>
<path d="M9.36282 17.6418H7.32422C6.49579 17.6418 5.82422 16.9702 5.82422 16.1418V11.5469C5.82422 10.4423 6.71965 9.54688 7.82422 9.54688H20.0007C21.1053 9.54688 22.0007 10.4423 22.0007 11.5469V16.1418C22.0007 16.9702 21.3291 17.6418 20.5007 17.6418H18.4621" stroke="#737A89" stroke-width="1.2"/>
<rect x="9.45938" y="14.7016" width="8.91029" height="5.88307" rx="0.9" stroke="#737A89" stroke-width="1.2"/>
<path d="M17.9574 10.0475V7.5C17.9574 6.67157 17.2858 6 16.4574 6H11.3691C10.5407 6 9.86914 6.67157 9.86914 7.5V10.0475" stroke="#737A89" stroke-width="1.2"/>
<mask id="path-5-inside-1_585_113067" fill="white">
<ellipse cx="17.9563" cy="12.5744" rx="1.01103" ry="1.01187"/>
</mask>
<ellipse cx="17.9563" cy="12.5744" rx="1.01103" ry="1.01187" fill="#737A89"/>
<path d="M17.7674 12.5744C17.7674 12.4714 17.851 12.3862 17.9563 12.3862V14.7862C19.1784 14.7862 20.1674 13.795 20.1674 12.5744H17.7674ZM17.9563 12.3862C18.0616 12.3862 18.1453 12.4714 18.1453 12.5744H15.7453C15.7453 13.795 16.7343 14.7862 17.9563 14.7862V12.3862ZM18.1453 12.5744C18.1453 12.6773 18.0616 12.7625 17.9563 12.7625V10.3625C16.7343 10.3625 15.7453 11.3537 15.7453 12.5744H18.1453ZM17.9563 12.7625C17.851 12.7625 17.7674 12.6773 17.7674 12.5744H20.1674C20.1674 11.3537 19.1784 10.3625 17.9563 10.3625V12.7625Z" fill="#737A89" mask="url(#path-5-inside-1_585_113067)"/>
</svg>
