<svg width="34" height="32" viewBox="0 0 34 32" fill="none" xmlns="http://www.w3.org/2000/svg">
<path d="M8.27188 4C8.27188 2.12223 9.79411 0.6 11.6719 0.6H25.4681L32.4045 7.55247V28C32.4045 29.8778 30.8823 31.4 29.0045 31.4H11.6719C9.79411 31.4 8.27188 29.8778 8.27188 28V4Z" fill="#F3F7FC" stroke="#8B91A1" stroke-width="1.2" stroke-linejoin="round"/>
<rect y="12" width="27" height="14" rx="2" fill="#217346"/>
<path d="M2.50134 22.2969V15.5801H7.01013V16.7305H3.89294V18.3633H6.77819V19.5137H3.89294V21.1465H7.0194V22.2969H2.50134ZM9.01886 17.2593L9.95587 19.0312L10.9114 17.2593H12.3309L10.8558 19.7734L12.368 22.2969H10.9578L9.95587 20.5435L8.97247 22.2969H7.54376L9.04669 19.7734L7.59942 17.2593H9.01886ZM14.9983 22.3989C13.4536 22.3943 12.5259 21.3274 12.5305 19.792C12.5259 18.252 13.4722 17.1943 14.9983 17.1943C16.2971 17.1943 17.1785 17.9504 17.2341 19.1055H15.9446C15.8611 18.6091 15.5364 18.2659 15.0168 18.2612C14.3582 18.2659 13.9221 18.8179 13.9221 19.7734C13.9221 20.7476 14.3489 21.3042 15.0168 21.3042C15.4993 21.3042 15.8564 21.0027 15.9446 20.4692H17.2341C17.1738 21.6104 16.3342 22.3943 14.9983 22.3989ZM20.1799 22.3989C18.6352 22.3943 17.6889 21.397 17.6935 19.8013C17.6889 18.2473 18.6491 17.1943 20.1242 17.1943C21.4462 17.1943 22.4899 18.0293 22.4899 19.7456V20.1353H19.048C19.048 20.896 19.498 21.3645 20.2077 21.3691C20.6762 21.3645 21.0102 21.1604 21.1447 20.8589H22.4528C22.258 21.7913 21.423 22.3943 20.1799 22.3989ZM19.048 19.2725H21.1911C21.1865 18.6602 20.7643 18.2195 20.152 18.2241C19.5212 18.2195 19.0759 18.6926 19.048 19.2725ZM24.5358 15.5801V22.2969H23.1627V15.5801H24.5358Z" fill="white"/>
</svg>
