<svg width="34" height="32" viewBox="0 0 34 32" fill="none" xmlns="http://www.w3.org/2000/svg">
<path d="M8.27188 4C8.27188 2.12223 9.79411 0.6 11.6719 0.6H25.4681L32.4045 7.55247V28C32.4045 29.8778 30.8823 31.4 29.0045 31.4H11.6719C9.79411 31.4 8.27188 29.8778 8.27188 28V4Z" fill="#F3F7FC" stroke="#8B91A1" stroke-width="1.2" stroke-linejoin="round"/>
<rect y="12" width="27" height="14" rx="2" fill="#CC492E"/>
<path d="M5.28473 22.2969V15.5801H7.91949C9.44561 15.5801 10.3223 16.5217 10.3223 17.8438C10.3223 19.1843 9.4317 20.1074 7.88238 20.1074H6.67633V22.2969H5.28473ZM6.67633 18.9849H7.65973C8.48541 18.9849 8.88897 18.521 8.88434 17.8438C8.88897 17.1758 8.48541 16.7258 7.65973 16.7212H6.67633V18.9849ZM11.0137 22.2969V15.5801H13.6484C15.1746 15.5801 16.0513 16.5217 16.0513 17.8438C16.0513 19.1843 15.1606 20.1074 13.6113 20.1074H12.4053V22.2969H11.0137ZM12.4053 18.9849H13.3887C14.2144 18.9849 14.6179 18.521 14.6133 17.8438C14.6179 17.1758 14.2144 16.7258 13.3887 16.7212H12.4053V18.9849ZM16.4829 16.7305V15.5801H21.9843V16.7305H19.9247V22.2969H18.5424V16.7305H16.4829Z" fill="white"/>
</svg>
