<svg width="34" height="32" viewBox="0 0 34 32" fill="none" xmlns="http://www.w3.org/2000/svg">
<path d="M8.27188 4C8.27188 2.12223 9.79411 0.6 11.6719 0.6H25.4681L32.4045 7.55247V28C32.4045 29.8778 30.8823 31.4 29.0045 31.4H11.6719C9.79411 31.4 8.27188 29.8778 8.27188 28V4Z" fill="#F3F7FC" stroke="#8B91A1" stroke-width="1.2" stroke-linejoin="round"/>
<rect y="12" width="27" height="14" rx="2" fill="#737A89"/>
<path d="M4.63531 16.7305V15.5801H10.1368V16.7305H8.07721V22.2969H6.69488V16.7305H4.63531ZM12.0991 15.5801L13.4722 17.8901H13.5186L14.9009 15.5801H16.478L14.4277 18.9385L16.5244 22.2969H14.9102L13.5186 19.9868H13.4722L12.0806 22.2969H10.4756L12.5815 18.9385L10.5127 15.5801H12.0991ZM16.8725 16.7305V15.5801H22.374V16.7305H20.3144V22.2969H18.9321V16.7305H16.8725Z" fill="white"/>
</svg>
