<svg width="18" height="18" viewBox="0 0 18 18" fill="none" xmlns="http://www.w3.org/2000/svg">
<g id="Icon/marker">
<path id="Icon (Stroke)" fill-rule="evenodd" clip-rule="evenodd" d="M9.00041 2.39922C6.21977 2.39922 3.96563 4.65337 3.96563 7.434C3.96563 8.2334 4.26914 9.14959 4.77633 10.1076C5.27944 11.0579 5.95751 12.0022 6.64739 12.8454C7.33568 13.6866 8.02563 14.415 8.54424 14.9336C8.71817 15.1076 8.87244 15.2575 9.00041 15.3798C9.12838 15.2575 9.28264 15.1076 9.45658 14.9336C9.97518 14.415 10.6651 13.6866 11.3534 12.8454C12.0433 12.0022 12.7214 11.0579 13.2245 10.1076C13.7317 9.14959 14.0352 8.2334 14.0352 7.434C14.0352 4.65337 11.781 2.39922 9.00041 2.39922ZM9.00041 16.1992C8.60179 16.6477 8.60169 16.6476 8.60156 16.6475L8.60011 16.6462L8.59639 16.6428L8.58295 16.6308L8.53303 16.5856C8.48985 16.5462 8.4273 16.4887 8.34815 16.4146C8.1899 16.2664 7.96502 16.0515 7.69571 15.7822C7.15779 15.2443 6.43905 14.4857 5.71864 13.6052C4.99983 12.7267 4.26921 11.7144 3.71579 10.6691C3.16645 9.63145 2.76562 8.51286 2.76562 7.434C2.76562 3.99063 5.55703 1.19922 9.00041 1.19922C12.4438 1.19922 15.2352 3.99063 15.2352 7.434C15.2352 8.51286 14.8344 9.63145 14.285 10.6691C13.7316 11.7144 13.001 12.7267 12.2822 13.6052C11.5618 14.4857 10.843 15.2443 10.3051 15.7822C10.0358 16.0515 9.81092 16.2664 9.65266 16.4146C9.57351 16.4887 9.51096 16.5462 9.46778 16.5856L9.41786 16.6308L9.40443 16.6428L9.40071 16.6462L9.39961 16.6471C9.39949 16.6473 9.39903 16.6477 9.00041 16.1992ZM9.00041 16.1992L9.39961 16.6471L9.00041 17.002L8.60156 16.6475L9.00041 16.1992ZM9.00064 5.99933C8.3379 5.99933 7.80064 6.53659 7.80064 7.19933C7.80064 7.86207 8.3379 8.39933 9.00064 8.39933C9.66338 8.39933 10.2006 7.86207 10.2006 7.19933C10.2006 6.53659 9.66338 5.99933 9.00064 5.99933ZM6.60064 7.19933C6.60064 5.87385 7.67515 4.79933 9.00064 4.79933C10.3261 4.79933 11.4006 5.87385 11.4006 7.19933C11.4006 8.52482 10.3261 9.59933 9.00064 9.59933C7.67515 9.59933 6.60064 8.52482 6.60064 7.19933Z" fill="#9E9E9E"/>
</g>
</svg>
