<svg width="34" height="32" viewBox="0 0 34 32" fill="none" xmlns="http://www.w3.org/2000/svg">
<path d="M8.27188 4C8.27188 2.12223 9.79411 0.6 11.6719 0.6H25.4681L32.4045 7.55247V28C32.4045 29.8778 30.8823 31.4 29.0045 31.4H11.6719C9.79411 31.4 8.27188 29.8778 8.27188 28V4Z" fill="#F3F7FC" stroke="#8B91A1" stroke-width="1.2" stroke-linejoin="round"/>
<rect y="12" width="27" height="14" rx="2" fill="#8B65AA"/>
<path d="M7.01031 16.7305V15.5801H12.5118V16.7305H10.4522V22.2969H9.06988V16.7305H7.01031ZM14.5762 15.5801V22.2969H13.1846V15.5801H14.5762ZM15.518 22.2969V15.5801H19.9433V16.7305H16.9096V18.3633H19.6557V19.5137H16.9096V22.2969H15.518Z" fill="white"/>
</svg>
