<svg width="34" height="32" viewBox="0 0 34 32" fill="none" xmlns="http://www.w3.org/2000/svg">
<path d="M8.27188 4C8.27188 2.12223 9.79411 0.6 11.6719 0.6H25.4681L32.4045 7.55247V28C32.4045 29.8778 30.8823 31.4 29.0045 31.4H11.6719C9.79411 31.4 8.27188 29.8778 8.27188 28V4Z" fill="#F3F7FC" stroke="#8B91A1" stroke-width="1.2" stroke-linejoin="round"/>
<rect y="12" width="27" height="14" rx="2" fill="#0679E3"/>
<path d="M5.97125 19.3838V22.2969H4.5982V15.5801H5.93414V18.1406H5.9898C6.22174 17.5515 6.72735 17.1943 7.49273 17.1943C8.54571 17.1943 9.23687 17.9041 9.23687 19.0869V22.2969H7.86383V19.3281C7.86383 18.7019 7.52984 18.3354 6.95465 18.3354C6.37481 18.3354 5.97125 18.7205 5.97125 19.3838ZM11.0972 22.2969L9.72412 17.2593H11.1157L11.9043 20.6641H11.9507L12.7764 17.2593H14.1401L14.9751 20.6455H15.0215L15.8008 17.2593H17.1924L15.8101 22.2969H14.3628L13.4907 19.0962H13.4258L12.5537 22.2969H11.0972ZM17.6982 24.1895V17.2593H19.0527V18.1035H19.1083C19.2985 17.6953 19.6975 17.1943 20.5463 17.1943C21.6596 17.1943 22.592 18.0571 22.5873 19.7827C22.592 21.4666 21.6967 22.3804 20.5463 22.3804C19.7253 22.3804 19.3032 21.9072 19.1083 21.4897H19.0712V24.1895H17.6982ZM19.0434 19.7734C19.0388 20.6826 19.4284 21.281 20.1103 21.2856C20.8107 21.281 21.1911 20.6641 21.1865 19.7734C21.1911 18.8967 20.82 18.2891 20.1103 18.2891C19.4238 18.2891 19.0388 18.8689 19.0434 19.7734Z" fill="white"/>
</svg>
