<svg width="29" height="24" viewBox="0 0 29 24" fill="none" xmlns="http://www.w3.org/2000/svg">
<g id="_&#235;&#160;&#136;&#236;&#157;&#180;&#236;&#150;&#180;_" clip-path="url(#clip0_344_202)">
<path id="Vector" d="M28.9595 4.00399C28.9921 2.99596 28.6692 2.19379 28.7019 1.2532C28.7055 1.12542 27.8421 0.188371 27.4866 0.174173C27.3632 0.170624 26.2531 0.323249 26.1116 0.323249C25.7778 0.3126 24.2868 0.170624 23.4306 0.174173C23.0352 0.174173 22.0339 0.0996354 21.4281 0.0499436C21.3229 0.0392954 19.7447 0.223865 19.6141 0.220316C18.6927 0.19192 17.4193 0.0499436 17.0601 0.00735066C16.7191 -0.0316929 14.3248 0.273557 13.7878 0.298403C13.1711 0.330347 12.6886 0.223865 12.1045 0.138679C11.4588 0.0428448 6.86592 0.429731 6.74257 0.429731C6.59746 0.429731 6.23467 0.589455 6.24193 0.734981C6.25281 0.937297 5.93719 1.93113 6.04965 2.17249C6.32537 2.77944 6.31086 4.00399 6.29272 4.64644C6.27095 5.4628 6.40155 6.21528 6.53216 7.12038C6.59746 7.56051 6.60108 8.69632 6.67001 9.25358C6.70992 9.56947 6.67364 10.1019 6.67001 10.4107C6.66276 11.6388 6.79336 12.6113 6.92759 13.8536C7.00015 14.5458 7.27949 16.9913 7.294 17.6976C7.294 17.829 7.3194 17.9141 7.34842 17.9816L7.46088 18.5566C7.46088 18.5566 7.27223 18.7767 7.61325 19.2523C7.61325 19.2523 7.72934 19.6889 8.33519 19.7989L8.67621 19.6889L9.31108 19.735L9.5868 19.7989L9.77182 19.7563C10.5808 19.8166 11.8868 19.9728 12.1263 19.9728C12.4056 19.9728 13.5629 19.8521 13.8604 19.8521C14.1397 19.8521 16.1641 19.9196 16.4616 19.9231C16.7445 19.9231 17.88 19.8699 18.1666 19.8734C18.4605 19.8734 22.5055 19.9977 22.7849 20.0012C23.0787 20.0048 25.3969 19.987 25.6472 19.9906C25.8758 19.9906 26.5324 19.6924 26.9533 19.6853C26.9533 19.6179 27.5555 18.7341 27.5664 18.6453C27.6897 17.7118 27.5156 17.9532 27.6462 17.2327C27.853 16.1004 27.4684 14.6913 27.7441 13.7365C27.8167 13.4916 28.3246 9.49139 28.35 9.25358C28.4951 7.95449 28.7273 7.70248 28.7128 6.40695C28.7128 6.26852 28.6729 5.34922 28.6765 5.20014C28.6801 5.03687 28.9377 4.16372 28.945 4.00399H28.9595Z" fill="white"/>
<path id="Vector_2" d="M12.8564 2.76484C12.588 2.71159 12.3231 2.65835 12.0547 2.60156C12.0656 2.89616 12.0728 3.18722 12.0728 3.47827C12.3231 3.48892 12.5735 3.50311 12.8274 3.52441C12.8383 3.26885 12.8492 3.01684 12.8528 2.76129L12.8564 2.76484Z" fill="#2F353A"/>
<path id="Vector_3" d="M7.96484 1.92824C8.02652 2.28673 8.09182 2.64167 8.15349 3.00016C8.47274 2.97532 8.78836 2.95757 9.10399 2.93982C9.03868 2.58488 8.96975 2.22994 8.90808 1.875C8.59246 1.89275 8.28047 1.90694 7.96484 1.92824Z" fill="#2F353A"/>
<path id="Vector_4" d="M10.1309 5.01527C10.1671 5.28147 10.2034 5.54413 10.2361 5.80679C10.4973 5.80324 10.7621 5.79969 11.0233 5.79969C10.9834 5.53703 10.9471 5.27438 10.9108 5.01172C10.6533 5.01172 10.3921 5.01172 10.1345 5.01172L10.1309 5.01527Z" fill="#2F353A"/>
<path id="Vector_5" d="M26.2894 1.98438C26.2277 2.30027 26.1733 2.61972 26.1152 2.93562C26.4272 3.01371 26.7283 3.09179 27.0331 3.16988C27.0875 2.85398 27.1383 2.53808 27.1927 2.22219C26.8916 2.14055 26.5905 2.06246 26.2894 1.98438Z" fill="#2F353A"/>
<path id="Vector_6" d="M22.9411 3.15199C22.9702 3.37915 23.0028 3.60276 23.0318 3.82993C23.2568 3.82638 23.4817 3.82283 23.703 3.82283C23.6703 3.59921 23.6377 3.37205 23.605 3.14844C23.3837 3.14844 23.1624 3.14844 22.9375 3.15199H22.9411Z" fill="#2F353A"/>
<path id="Vector_7" d="M25.6836 5.38832C25.7126 5.61548 25.7416 5.84264 25.7707 6.06625C25.9956 6.0627 26.2205 6.05915 26.4418 6.05915C26.4092 5.83554 26.3765 5.61193 26.3475 5.38477C26.1262 5.38477 25.9049 5.38832 25.6836 5.38832Z" fill="#2F353A"/>
<path id="Vector_8" d="M9.63477 8.96875C9.66016 8.9936 9.68556 9.01489 9.71458 9.03974L9.63477 8.96875Z" fill="#C6B67C"/>
<path id="Vector_9" d="M15.0442 6.2186C14.9935 6.02693 14.54 6.2257 14.2497 6.27184C14.072 6.30023 13.8253 6.39962 13.6584 6.41736C13.4444 6.43866 13.1106 6.53449 13.0018 6.73681C12.9365 6.85749 13.1251 6.90718 13.2086 6.94978C13.3573 7.02431 13.5169 7.1095 13.5786 7.27632C13.6366 7.4325 13.6403 7.61707 13.6729 7.78034C13.7092 7.97201 13.7382 8.16723 13.7781 8.35889C13.818 8.53636 13.7636 8.73158 13.8035 8.8984C13.8507 9.07588 13.9704 9.37758 14.0212 9.516C14.1046 9.75736 14.0901 9.76446 14.1699 9.79286C14.4348 9.88159 14.7177 9.81415 15.0588 9.84255C15.2329 9.85675 15.4034 9.95258 15.6356 9.97388C15.8279 9.99162 16.5317 10.02 16.7348 10.0413C16.9307 10.0626 17.1302 10.0626 17.337 10.0839C17.5329 10.1017 17.7397 10.0413 17.9429 10.0626C18.1497 10.0839 18.3601 10.1017 18.5705 10.123C18.7737 10.1442 18.9804 10.1478 19.18 10.1691C19.3759 10.1868 19.5645 10.2969 19.7532 10.3146C19.9563 10.3359 20.1631 10.272 20.359 10.2898C20.4606 10.3004 20.5586 10.3075 20.6601 10.3182C20.8959 10.343 21.1354 10.3785 21.3748 10.375C21.4873 10.375 21.578 10.4282 21.6868 10.4637C21.8174 10.5098 21.9553 10.5418 22.0931 10.5631C22.2165 10.5808 22.2782 10.6412 22.3797 10.7015C22.4849 10.7618 22.5684 10.7335 22.6518 10.6483C22.6917 10.6057 22.7099 10.5524 22.7461 10.5063C22.7824 10.4601 22.8296 10.4176 22.855 10.3643C22.8804 10.3111 22.8767 10.2507 22.8876 10.1939C22.9167 10.0129 22.942 9.83545 22.9529 9.65443C22.9602 9.55505 22.942 9.47341 22.9711 9.37758C23.0001 9.28174 23.0473 9.18591 23.0545 9.08652C23.069 8.90905 23.0654 8.73158 23.0799 8.55766C23.0944 8.35889 23.0799 8.17787 23.0872 8.0146C23.1126 7.71645 23.2577 7.39345 23.1017 7.37926C23.0654 7.37926 22.9348 7.36861 22.67 7.26922C22.5103 7.21243 22.3289 7.22663 22.1657 7.19824C22.0786 7.18404 22.0133 7.1379 21.9335 7.11305C21.8428 7.0811 21.734 7.12725 21.6397 7.13435C21.5453 7.13435 21.4764 7.19824 21.3857 7.23018C21.324 7.25148 21.2442 7.25503 21.2225 7.32956C21.1971 7.41475 21.3023 7.45024 21.3422 7.50348C21.3893 7.56737 21.393 7.67386 21.4111 7.74839C21.451 7.92587 21.4945 8.09979 21.5308 8.27726C21.5417 8.33405 21.5562 8.39439 21.5598 8.45118C21.5671 8.62155 21.5526 8.70319 21.5453 8.84161C21.5344 9.06168 21.2841 8.9268 21.2515 9.00134C21.2261 9.06168 21.2406 9.15041 20.9177 9.15396C20.3264 9.16106 19.7604 9.10782 19.5319 9.08297C19.2489 9.05103 18.9115 9.06523 18.9514 8.9481C18.9913 8.82032 18.4544 9.01199 18.2513 8.99424C18.0481 8.98004 17.8631 8.99069 17.6672 8.97294C17.4495 8.9552 17.3479 8.95165 17.1556 8.92325C16.9235 8.88776 16.4664 8.95165 16.2305 8.83806C16.129 8.79192 15.7916 8.76353 15.7698 8.75998C15.505 8.71739 15.6138 8.38374 15.4433 7.96491C15.3381 7.6987 15.4687 7.57092 15.3599 7.30827C15.251 7.03851 15.2583 7.05271 15.1603 6.77585C15.0769 6.53804 15.1095 6.42091 15.0551 6.2257L15.0442 6.2186Z" fill="#2F353A"/>
<path id="Vector_10" d="M14.782 13.4343C14.6949 13.2959 14.6079 13.161 14.5208 13.0226C14.4446 12.9019 14.4047 12.7422 14.2596 12.6996C14.1217 12.6606 13.9839 12.6038 13.8787 12.508C13.8061 12.4441 13.7662 12.3376 13.7299 12.2524C13.6864 12.1566 13.7807 12.0572 13.8279 11.972C13.8678 11.901 13.9295 11.8442 13.9984 11.8052C14.0964 11.7484 14.2415 11.7164 14.3503 11.6987C14.5535 11.6667 14.7639 11.688 14.967 11.6454C15.0541 11.6277 15.1774 11.5745 15.2609 11.617L15.3443 11.6454C15.4568 11.7058 15.4532 11.83 15.4822 11.94C15.5148 12.0714 15.6309 12.224 15.6491 12.3553C15.6599 12.4334 15.6672 12.5647 15.7398 12.618C15.7942 12.657 15.8885 12.6357 15.9502 12.6357C16.2114 12.6357 16.4617 12.5967 16.7193 12.586C16.9769 12.5754 17.2308 12.5292 17.4848 12.5115C17.5646 12.5044 17.6407 12.5328 17.7133 12.4938C17.8149 12.4405 17.8983 12.3447 17.9818 12.2701C18.0434 12.2169 18.0725 12.2169 18.058 12.3056C18.0434 12.4015 18.3808 12.4121 18.428 12.405C18.6239 12.3802 18.8198 12.3482 19.0157 12.3198C19.179 12.295 19.3531 12.295 19.5091 12.2524C19.6034 12.224 19.6977 12.1708 19.7376 12.0785C19.7957 11.9471 19.705 11.8265 19.6941 11.6987C19.6796 11.5141 19.9045 11.4644 20.0496 11.436C20.1294 11.4183 20.2165 11.3686 20.3036 11.3757C20.4197 11.3828 20.5466 11.4573 20.6519 11.5035C20.7788 11.5567 20.9058 11.6135 21.0328 11.6703C21.1997 11.7448 21.5189 11.7874 21.6568 11.862C21.8563 11.972 21.9543 12.0536 21.9325 12.1388C21.9035 12.2453 21.849 12.5257 21.8019 12.7174C21.762 12.87 21.7547 13.0439 21.7039 13.1859C21.6241 13.4095 21.6894 13.4166 21.4971 13.5373C21.2505 13.6899 21.1307 13.6118 20.7607 13.6438C20.5902 13.658 20.2165 13.6935 19.988 13.7112C19.7993 13.7254 19.6179 13.7715 19.4039 13.7857C19.208 13.7999 19.0012 13.7857 18.7944 13.7999C18.5949 13.8141 18.3627 13.7609 18.1595 13.7751C17.96 13.7893 17.7568 13.7928 17.5609 13.8035C17.365 13.8177 17.1728 13.8248 16.9877 13.8354C16.7882 13.8461 16.5887 13.9206 16.4073 13.9277C16.1824 13.9384 15.9828 13.949 15.8159 13.9526C15.5366 13.9632 15.1412 13.8922 15.0831 13.878C14.9815 13.8461 14.9271 13.6686 14.7748 13.4343H14.782Z" fill="#2F353A"/>
<path id="Vector_11" d="M19.3433 6.89972C19.2998 6.82518 19.2345 6.75775 19.1909 6.68676C19.122 6.58382 19.0386 6.50929 18.9189 6.46669C18.8173 6.4312 18.7012 6.45959 18.596 6.46669C18.4618 6.47734 18.2695 6.53058 18.1352 6.49864C18.0772 6.49864 17.8849 6.4525 17.8233 6.4525C17.7072 6.48444 17.7725 6.54123 17.7217 6.74C17.6527 7.00975 17.7072 7.6593 17.6419 7.9255C17.5802 8.17396 17.4931 8.32304 17.4351 8.56795C17.3734 8.81641 17.475 9.17845 17.4351 9.41626C17.3843 9.68601 17.3734 9.67891 17.3371 9.94867C17.3008 10.2149 17.1158 10.19 17.0795 10.4562C17.0433 10.726 17.1195 10.7437 17.0795 11.017C17.0433 11.2832 17.0179 11.2797 16.978 11.5459C16.9417 11.8086 16.8836 12.3445 16.8474 12.6143C16.8075 12.884 16.6986 12.8627 16.6623 13.1289C16.6261 13.3952 16.8038 13.42 16.7676 13.6862C16.7313 13.9524 16.4991 14.4529 16.4628 14.712C16.4229 15.0066 16.3975 15.2657 16.4265 15.5567C16.4773 16.0643 16.1871 16.3234 16.1291 16.7493C16.0928 17.0014 16.2996 17.0298 16.2633 17.2782C16.2306 17.5267 15.9731 17.5657 16.1835 17.7361C16.4374 17.942 16.4918 17.8639 16.8329 17.8674C17.1303 17.8674 17.5838 17.9597 17.8051 17.7929C18.03 17.6225 17.8486 17.4308 17.8886 17.1717C17.9321 16.9055 17.9103 16.9233 17.9502 16.6606C17.9938 16.398 17.9176 16.3873 17.9611 16.1247C18.001 15.8655 18.1498 15.3509 18.1897 15.0811C18.2332 14.8149 18.2804 14.822 18.3203 14.5594C18.3638 14.2932 18.3058 14.247 18.3493 13.9808C18.3928 13.7146 18.1606 13.8353 18.2042 13.5691C18.2441 13.3135 18.2405 13.3135 18.284 13.0544C18.3239 12.7918 18.2477 12.774 18.2876 12.5149C18.3312 12.2593 18.5452 11.34 18.5851 11.088C18.6214 10.8573 18.6286 10.726 18.6685 10.4953C18.7193 10.2255 18.6758 10.2646 18.7302 9.99481C18.7883 9.72151 18.7883 9.7854 18.8427 9.51209C18.8971 9.24589 18.9406 9.21394 18.9914 8.95128C19.0458 8.68153 18.995 8.65313 19.0495 8.37983C19.1039 8.11362 19.1438 8.17751 19.1982 7.90776C19.2236 7.79063 19.2454 7.66995 19.2708 7.55281C19.2889 7.46053 19.3107 7.36824 19.3324 7.27596C19.3542 7.17658 19.4014 7.08429 19.3687 6.98136C19.3615 6.95296 19.3469 6.92457 19.3288 6.89617L19.3433 6.89972Z" fill="#2F353A"/>
<path id="Vector_12" d="M12.6752 15.9191C12.6281 15.7594 12.5773 15.5926 12.5301 15.4222C12.4866 15.2625 12.4938 15.0886 12.4467 14.9218C12.4031 14.7656 12.3233 14.613 12.2762 14.4532C12.229 14.2864 12.2362 14.1089 12.1855 13.9421C11.8916 12.9518 11.5615 11.8728 11.2422 10.8719C11.1406 10.5595 11.1842 10.3927 10.923 10.2685C10.7416 10.1833 10.5638 10.2827 10.3788 10.233C10.1938 10.1833 10.0305 10.1691 9.83824 10.1549C9.67499 10.1442 9.51174 10.1655 9.34848 10.1371C9.19612 10.1123 9.06551 10.0342 8.90589 10.0662C8.79343 10.0874 8.74989 10.1975 8.64831 10.2365C8.55399 10.272 8.40887 10.3146 8.44515 10.4317C8.48869 10.5666 9.02924 10.847 9.08728 11.0209C9.13444 11.1629 9.19974 11.312 9.26142 11.4753C9.31583 11.635 9.54439 12.3094 9.60969 12.4798C9.67136 12.643 9.88178 12.966 9.94345 13.1293C10.0051 13.289 10.172 13.7646 10.2337 13.9244C10.2954 14.0912 10.4949 14.3042 10.5602 14.471C10.6219 14.6307 10.7126 15.2412 10.7742 15.4009C10.8903 15.692 11.0645 16.5616 11.5034 16.5935C11.6884 16.6077 12.3523 16.5509 12.5446 16.5829C12.7441 16.6184 12.7333 16.164 12.668 15.9191H12.6752Z" fill="#2F353A"/>
<path id="Vector_13" d="M12.2461 16.1455C12.2026 15.9858 12.1482 15.819 12.101 15.6486C12.0575 15.4889 12.0647 15.315 12.0176 15.1481C11.974 14.992 11.8942 14.8393 11.8471 14.6796C11.7999 14.5128 11.8071 14.3353 11.7564 14.172C11.4625 13.1818 11.1324 12.1027 10.8131 11.0983C10.7115 10.7859 10.7587 10.6191 10.4975 10.4949C10.2182 10.36 10.2327 10.5268 9.9243 10.4629C9.57965 10.3848 9.60142 10.47 9.25315 10.3955C8.92302 10.3245 8.57837 10.3103 8.42237 10.3671C8.43689 10.4629 8.37158 10.5978 8.43326 10.8037C8.47679 10.9385 8.60739 11.077 8.66544 11.2473C8.7126 11.3893 8.78153 11.5384 8.83958 11.7017C8.89399 11.8578 9.12255 12.5322 9.18785 12.7061C9.24952 12.8694 9.45994 13.1924 9.52161 13.3557C9.58328 13.5154 9.75016 13.991 9.81184 14.1507C9.87714 14.3176 10.073 14.5305 10.1383 14.6974C10.2 14.8571 10.2907 15.4676 10.3524 15.6273C10.4685 15.9184 10.6426 16.788 11.0816 16.8199C11.2666 16.8341 11.9305 16.7773 12.1228 16.8093C12.3223 16.8412 12.3114 16.3869 12.2461 16.1455Z" fill="#2F353A"/>
<path id="Vector_14" d="M9.54437 16.2851C9.58065 16.2354 9.72214 16.3312 10.0559 16.3029C11.3728 16.1822 12.3596 16.1893 13.6692 16.2212C13.8579 16.2248 14.3476 16.2461 14.5399 16.2496C14.7249 16.2532 14.9208 16.2354 15.1095 16.239C15.2981 16.2425 15.5013 16.2851 15.6936 16.2922C15.8786 16.2993 16.0636 16.3454 16.2486 16.3525C16.4336 16.3596 16.5933 16.3064 16.7819 16.31C16.9742 16.3171 17.2027 16.3845 17.3986 16.3916C17.5837 16.3987 17.7687 16.3241 17.9537 16.3312C18.1424 16.3383 18.331 16.3774 18.516 16.388C18.7083 16.3951 18.9514 16.3064 19.1436 16.3135C19.325 16.3206 19.452 16.3348 19.6298 16.3419C19.8148 16.349 19.9998 16.3135 20.1776 16.3206C20.3626 16.3312 20.5512 16.31 20.7326 16.3206C20.9249 16.3312 21.4437 16.4306 21.6251 16.4377C21.8174 16.4448 21.6686 16.4697 21.85 16.4768C22.0314 16.4874 22.2055 16.5655 22.376 16.5726C22.5574 16.5797 22.7352 16.4732 22.9021 16.4839C23.0871 16.491 23.2576 16.6117 23.4209 16.6187C23.6676 16.6329 23.9142 16.6188 24.1609 16.6258C24.3169 16.6258 24.4693 16.6258 24.6253 16.6152C24.7378 16.6046 24.8647 16.5762 24.9627 16.6542C25.2565 16.8814 25.0933 17.5168 25.0534 17.8149C25.0207 18.0563 25.1114 18.0208 24.9337 18.1521C24.7087 18.3189 24.7958 18.2692 24.4367 18.2621C24.2734 18.2621 24.0775 18.2515 23.8598 18.2515C22.8477 18.2373 22.2781 18.003 21.2151 18.1131C20.8777 18.1485 20.1413 18.2586 19.8329 18.255C19.637 18.255 19.4447 18.3118 19.2634 18.3118C19.0602 18.3118 18.8679 18.255 18.6938 18.2586C18.4906 18.2586 18.3056 18.2231 18.1496 18.2266C17.863 18.2266 17.649 18.0989 17.6018 18.1095C16.7964 18.287 15.9874 18.0563 15.153 18.0598C14.5508 18.0598 13.9522 18.1273 13.3536 18.1734C13.0815 18.1947 12.8058 18.1982 12.541 18.2479C12.2544 18.3047 11.9533 18.2408 11.663 18.2976C11.5687 18.3154 11.4853 18.358 11.3873 18.358C11.2712 18.358 11.1515 18.3189 11.0354 18.3189C10.8431 18.3189 10.6835 18.3118 10.5384 18.3154C10.2192 18.3154 10.3098 18.397 10.1248 18.2266C9.89627 18.0137 9.99785 18.0421 9.89265 17.7262C9.83097 17.5416 9.83097 17.3215 9.77656 17.137C9.70763 16.9027 9.46093 16.3916 9.54437 16.2816V16.2851Z" fill="#2F353A"/>
<path id="Vector_15" d="M19.3468 2.22213C19.3468 2.22213 19.3649 2.23633 19.3758 2.24697C19.4629 2.33926 19.5282 2.45639 19.6153 2.54868C19.7241 2.66226 19.8329 2.77939 19.9345 2.89652C20.0252 2.9959 20.1631 3.08109 20.2755 3.15917C20.4243 3.26921 20.5041 3.42538 20.6238 3.55316C20.6855 3.62415 20.7544 3.68449 20.8016 3.76258C20.856 3.85131 20.9068 3.95069 20.9757 4.03233C21.041 4.11042 21.1027 4.18141 21.1099 4.28789C21.1136 4.40857 21.0591 4.5399 20.9866 4.62863C20.9031 4.73157 20.8596 4.85225 20.7834 4.95873C20.7399 5.01552 20.6927 5.09006 20.6383 5.1362C20.5984 5.17169 20.5512 5.17524 20.5005 5.19299C20.3009 5.25688 20.1123 5.35626 19.9708 5.4592C19.6951 5.65796 19.6661 5.65796 19.5173 5.67926C19.2996 5.7112 18.9078 5.76444 18.6067 5.78574C18.3709 5.79994 18.2439 5.78574 17.99 5.68991C17.736 5.59762 17.4966 5.51244 17.308 5.43435C17.2136 5.39176 17.1266 5.27463 17.0468 5.09361C16.9669 4.91259 16.7565 4.41212 16.8037 4.32338C16.8871 4.17076 17.3261 3.56026 17.3733 3.47152C17.4676 3.30115 17.736 3.18402 17.9065 3.08819C17.9791 3.04559 18.0662 3.0172 18.1351 2.97106C18.2185 2.91426 18.2439 2.81488 18.2766 2.7297C18.3274 2.58772 18.3637 2.44219 18.4144 2.29667C18.4253 2.27182 18.4507 2.24697 18.4652 2.22213C18.4834 2.19373 18.5051 2.16179 18.5269 2.13339C18.5342 2.12275 18.5342 2.11565 18.5378 2.10145C18.5414 2.0837 18.5523 2.06595 18.5632 2.05176C18.5777 2.02336 18.5922 1.99497 18.614 1.97367C18.6285 1.95592 18.6503 1.94527 18.6648 1.92753C18.6902 1.90268 18.7156 1.86719 18.7591 1.86719C18.7772 1.86719 18.7954 1.86719 18.8135 1.86719C18.8353 1.86719 18.857 1.86719 18.8752 1.86719C18.8861 1.86719 18.9042 1.86719 18.9151 1.87429C18.926 1.88139 18.9296 1.88848 18.9369 1.89558C18.9623 1.91333 18.9876 1.92753 19.0167 1.94173C19.0602 1.96302 19.0929 1.99142 19.1219 2.02691C19.1509 2.06241 19.1835 2.0979 19.2162 2.12984C19.2525 2.16534 19.2996 2.18663 19.3432 2.21858L19.3468 2.22213Z" fill="#2F353A"/>
<path id="Vector_16" d="M19.7346 3.9868C19.7056 3.78093 19.5605 3.58571 19.3791 3.48278C19.1868 3.37275 18.9183 3.46503 18.7116 3.48278C18.5302 3.49343 18.327 3.51827 18.1746 3.62476C18.113 3.66735 18.0513 3.73124 17.9824 3.81642C17.8518 3.98325 17.7792 4.12522 17.7719 4.24235C17.7647 4.40563 17.8445 4.51921 17.9316 4.64699C18.0041 4.75347 18.0368 4.86705 18.1674 4.92029C18.3451 4.99128 18.5265 4.94514 18.7079 4.92739C18.9147 4.90609 19.0925 4.88125 19.2775 4.77122C19.4807 4.65054 19.6367 4.44822 19.7165 4.22461C19.7419 4.14652 19.7491 4.06488 19.7346 3.9868Z" fill="white"/>
<path id="Vector_17" d="M20.5078 3.68378L20.2393 3.40692L20.0615 3.23655C20.0615 3.23655 19.4049 2.51957 19.1836 2.28176L18.9297 1.95876C18.8789 1.87712 18.8281 1.80259 18.7483 1.79549C18.6648 1.78839 18.614 1.84873 18.527 1.94811L18.3311 2.16108C18.2331 2.25336 17.5293 2.72188 17.2899 2.86031C17.0105 3.02358 16.8618 3.12652 16.8074 3.2259L16.5933 3.5418L16.2378 4.07776C16.216 4.12035 16.1652 4.20554 16.4736 4.91542C16.5643 5.12484 16.6659 5.24907 16.7783 5.29876L17.3661 5.52237L17.464 5.55787C17.7252 5.6537 17.8631 5.67145 18.1134 5.65725L19.0312 5.55077C19.1981 5.52592 19.2489 5.51172 19.521 5.31296C19.6661 5.21002 19.8511 5.11774 20.0289 5.06095C20.4352 4.92962 20.5078 4.69181 20.613 4.36526L20.6311 4.30847C20.6493 4.25168 20.6565 4.18779 20.6565 4.12745C20.6565 3.97838 20.6057 3.8222 20.5078 3.68378ZM19.3178 4.19489C19.238 4.36171 19.1618 4.43625 18.9623 4.55338C18.7374 4.68116 18.5125 4.73085 18.2803 4.69891C18.1932 4.69891 18.0844 4.67406 17.9574 4.63502C17.805 4.59243 17.718 4.54628 17.6817 4.50014C17.5184 4.33332 17.4459 4.17359 17.4604 4.02452C17.4676 3.90739 17.5366 3.76541 17.6708 3.59859C17.7361 3.5134 17.8014 3.44951 17.8631 3.40692C18.03 3.29334 18.2948 3.2472 18.5451 3.27914C18.9115 3.32528 19.6262 3.77606 19.3178 4.19844V4.19489Z" fill="#2F353A"/>
<path id="Vector_18" d="M13.7367 12.1277C13.7947 12.039 13.9108 11.9964 14.016 11.9928C14.0922 11.9928 14.1684 12.007 14.2519 11.9999C14.3317 11.9928 14.4115 11.9751 14.4913 11.9609C14.6545 11.936 14.8105 11.8544 14.9665 11.9325C15.05 11.9751 15.0899 12.0603 15.108 12.1454C15.1407 12.2732 15.2568 12.4294 15.2749 12.5643C15.293 12.6956 15.3837 12.9086 15.5107 12.9121C15.8227 12.9121 16.1601 12.8979 16.4685 12.8553C16.6571 12.8305 16.8131 12.763 17.0126 12.7488C17.3246 12.724 17.6221 12.6814 17.9305 12.6885C18.2679 12.6992 18.6125 12.5856 18.9499 12.5714C19.0152 12.5714 19.3852 12.5998 19.407 12.5146C19.4578 12.3229 19.5993 12.1632 19.6319 11.9609C19.6501 11.8544 19.6247 11.7053 19.7045 11.6201C19.8387 11.4782 20.002 11.5953 20.1471 11.6556C20.3067 11.7195 20.4845 11.7976 20.6586 11.8757C20.8255 11.9502 21.1484 11.9928 21.2826 12.0674C21.4821 12.1774 21.5837 12.259 21.5583 12.3442C21.5293 12.4507 21.4749 12.7311 21.4277 12.9228C21.3878 13.0754 21.3806 13.2493 21.3298 13.3913C21.25 13.6149 21.3153 13.622 21.1194 13.7391C20.8727 13.8918 20.7529 13.8172 20.3829 13.8456C20.2124 13.8598 19.8641 13.9273 19.6392 13.945C19.4469 13.9592 19.2401 13.9734 19.0261 13.9876C18.8266 14.0018 18.6234 13.9876 18.4166 14.0018C18.2171 14.016 17.9849 13.9627 17.7817 13.9769C17.5822 13.9911 17.3791 13.9911 17.1831 14.0053C16.9872 14.0195 16.795 14.0266 16.61 14.0373C16.4104 14.0479 16.2109 14.1189 16.0295 14.1296C15.8046 14.1402 15.605 14.1509 15.4345 14.1544C15.206 14.1615 14.8831 14.2822 14.6836 14.1189C14.5348 13.9947 14.4949 13.7888 14.397 13.6327C14.2337 13.3771 14.0668 13.1215 13.9253 12.8553C13.8492 12.7098 13.7911 12.5501 13.7294 12.401C13.6895 12.2981 13.6787 12.2058 13.7294 12.1277H13.7367Z" fill="#2F353A"/>
<path id="Vector_19" d="M14.6814 6.48422C14.6306 6.29255 14.1771 6.49132 13.8832 6.53746C13.7055 6.56586 13.4624 6.66524 13.2919 6.68299C12.911 6.72203 12.9618 6.84981 13.0379 7.06278C13.0706 7.15151 13.1758 7.32898 13.2266 7.57389C13.2592 7.73007 13.3753 8.44705 13.4152 8.62452C13.4551 8.80199 13.4007 8.99721 13.4406 9.16403C13.4878 9.3415 13.6075 9.6432 13.6583 9.77808C13.7454 10.023 13.7272 10.0265 13.807 10.0549C14.0719 10.1401 14.3585 10.0727 14.6959 10.1046C14.87 10.1188 15.0405 10.2147 15.2727 10.236C15.465 10.2537 16.1651 10.2821 16.3719 10.3034C16.5678 10.3247 16.7674 10.3247 16.9741 10.346C17.1701 10.3637 17.3768 10.3034 17.58 10.3247C17.7904 10.346 17.9972 10.3673 18.2076 10.385C18.4108 10.4063 18.6139 10.4099 18.8171 10.4312C19.013 10.4489 19.2016 10.5554 19.3903 10.5767C19.5971 10.598 19.8039 10.5341 19.9961 10.5519C20.2029 10.5731 21.0083 10.6512 21.1933 10.669C21.411 10.6903 21.5996 10.7435 21.7593 10.7577C22.0459 10.7826 22.2273 10.7471 22.2744 10.7471C22.6227 10.7471 22.6372 10.6938 22.63 10.385C22.63 10.3069 22.532 10.1188 22.5501 9.85617C22.561 9.69644 22.6662 9.52962 22.6807 9.3415C22.6953 9.16403 22.6916 8.98656 22.7061 8.81264C22.7243 8.61387 22.7061 8.43285 22.717 8.26958C22.7388 7.97143 22.8875 7.64843 22.7315 7.63423C22.6953 7.63423 22.5647 7.62358 22.2962 7.5242C22.1547 7.47096 21.8971 7.45676 21.7448 7.41417C21.5743 7.36803 21.4183 7.25444 21.2913 7.25444C21.1607 7.25444 21.1897 7.51355 21.1752 7.76201C21.1643 7.90754 21.1824 8.56063 21.1897 8.71325C21.197 8.88363 21.1824 8.96526 21.1752 9.10369C21.1643 9.32375 21.0845 9.28826 20.9974 9.31665C20.9358 9.3344 20.6963 9.3628 20.3734 9.3486C20.192 9.3415 19.3468 9.31311 19.1255 9.29891C18.9259 9.28471 18.7191 9.22792 18.5124 9.21017C18.3092 9.19597 18.0843 9.27051 17.8775 9.25276C17.6707 9.23857 17.4893 9.24922 17.2898 9.23147C17.0757 9.21372 16.8653 9.17468 16.6767 9.14628C16.4445 9.10724 16.089 9.16048 15.8568 9.0469C15.7552 9.00076 15.4178 8.97236 15.396 8.96881C15.1312 8.92267 15.2437 8.64227 15.0695 8.22344C14.9643 7.96078 15.0949 7.82945 14.9861 7.56679C14.8773 7.29704 14.8845 7.31124 14.7866 7.03438C14.7031 6.79657 14.7358 6.67944 14.6814 6.48422Z" fill="#2F353A"/>
<path id="Vector_20" d="M19.0562 6.67944C19.0562 6.67944 19.0671 6.64395 19.0707 6.62975C19.1179 6.45228 18.893 6.47713 18.7624 6.45938C18.639 6.44163 18.5302 6.42033 18.4032 6.41678C18.269 6.41678 18.1674 6.3529 18.0368 6.34225C17.8808 6.32805 17.7175 6.34225 17.5616 6.34225C17.4963 6.34225 17.4273 6.32805 17.391 6.38484C17.3584 6.43098 17.3693 6.53392 17.3548 6.58716C17.2895 6.85691 17.3403 7.50646 17.275 7.77266C17.2133 8.01757 17.1298 8.1702 17.0682 8.41511C17.0065 8.66356 17.1117 9.02206 17.0645 9.26342C17.0137 9.52962 17.0029 9.52607 16.9666 9.79583C16.9303 10.062 16.7453 10.0372 16.709 10.3034C16.6727 10.5732 16.7489 10.5909 16.709 10.8607C16.6727 11.1269 16.6473 11.1233 16.6074 11.3895C16.5712 11.6522 16.5131 12.1881 16.4768 12.4579C16.4405 12.7241 16.3317 12.7028 16.2954 12.9726C16.2592 13.2388 16.4369 13.2601 16.4006 13.5298C16.3644 13.796 16.1322 14.2965 16.0959 14.5556C16.0596 14.8502 16.0306 15.1093 16.0596 15.4004C16.1104 15.9044 15.8202 16.167 15.7621 16.593C15.7259 16.845 15.9327 16.8734 15.9 17.1218C15.8674 17.3703 15.6098 17.4093 15.8202 17.5797C16.0741 17.7856 16.1322 17.7075 16.4696 17.711C16.7671 17.711 17.2205 17.8033 17.4418 17.6365C17.6668 17.4661 17.4854 17.2744 17.5253 17.0189C17.5688 16.7527 17.547 16.7704 17.5869 16.5042C17.6305 16.2416 17.5543 16.2309 17.5978 15.9683C17.6377 15.7092 17.7865 15.1945 17.8264 14.9247C17.8699 14.6585 17.8082 14.6656 17.8518 14.3994C17.8953 14.1332 17.8627 14.1155 17.9026 13.8493C17.9461 13.5831 17.801 13.6789 17.8409 13.4127C17.8844 13.1571 17.8772 13.1571 17.9207 12.898C17.9606 12.6354 17.8844 12.6176 17.9243 12.355C17.9642 12.0994 18.1783 11.1801 18.2218 10.9281C18.2581 10.6974 18.2617 10.5661 18.3053 10.3389C18.3524 10.0691 18.3125 10.1082 18.3669 9.83842C18.4214 9.56512 18.4213 9.62546 18.4794 9.35215C18.5338 9.08949 18.5773 9.054 18.6281 8.78779C18.6862 8.51804 18.6281 8.48964 18.6862 8.21634C18.7406 7.95013 18.7805 8.01402 18.8349 7.74427C18.8893 7.48871 18.9292 7.23315 18.9837 6.98114C19.0054 6.87821 19.0236 6.77173 19.049 6.66879L19.0562 6.67944Z" fill="#2F353A"/>
<path id="Vector_21" d="M6.13655 16.8525C5.96967 15.4895 5.908 14.7655 5.66856 13.2286C5.64316 13.0724 5.54884 11.0528 5.49442 10.6162C5.38921 9.83887 5.16066 8.99056 5.05545 8.32682L5.06271 8.28068C5.14252 7.91509 5.12801 5.72155 5.12801 5.72155V5.17494L4.94299 3.78712L4.85592 3.53156V3.276L4.70718 1.08246C4.70718 0.826907 4.59835 0.699128 4.47137 0.638788C4.47137 0.628139 4.47137 0.613942 4.47137 0.603293C4.42058 0.599744 4.36616 0.596195 4.31175 0.592645C4.27547 0.589096 4.23919 0.585546 4.20654 0.585546C3.68776 0.553602 3.17623 0.340637 2.67196 0.290945C2.48331 0.273198 1.5038 0.386779 1.48929 0.386779C1.07209 0.38323 0.741952 0.674282 0.705673 0.80561C0.662139 0.972433 0.498886 1.61133 0.517026 1.7746C0.542421 2.00886 1.06846 3.70193 1.07934 4.01073C1.11199 4.80225 1.17366 5.0862 1.16641 5.76769C1.16641 5.82093 1.40947 7.48561 1.4131 7.53885C1.44212 8.63562 1.87384 10.4884 2.22574 12.8381C2.28378 13.225 2.30192 14.0414 2.43615 15.2517C2.45429 15.4363 2.57038 17.3033 2.59578 17.4737C2.70099 18.1977 2.80619 18.4675 2.89689 19.4294C2.98396 19.6566 3.64785 19.7595 4.02152 19.7133C4.33351 19.6743 4.97927 19.8447 5.31666 19.834C5.55247 19.8234 5.69395 19.4152 5.9479 19.4294C5.92976 18.4675 6.24901 17.7789 6.14018 16.849L6.13655 16.8525Z" fill="white"/>
<path id="Vector_22" d="M27.2079 21.8439C27.2261 21.5209 27.2261 21.4286 27.2297 21.3257C27.2297 21.2334 27.3313 20.8075 26.7762 20.843C26.5586 20.8572 24.3964 21.0027 24.1206 20.9991C23.8703 20.992 21.3526 20.8394 21.066 20.8359C20.7903 20.8288 19.7672 20.9636 19.4915 20.9601C19.2267 20.9565 16.9919 20.8749 16.709 20.8714C16.4333 20.8714 16.1503 20.9743 15.8709 20.9707C15.5771 20.9636 15.2869 20.8394 14.993 20.8359C14.7064 20.8359 13.6761 20.992 13.3859 20.9885C13.1065 20.9885 11.9311 20.9069 11.6445 20.9033C11.3579 20.9033 9.47506 20.8004 8.86558 20.7933C8.32866 20.7862 7.74095 20.8465 7.20403 20.8607C7.04441 20.8643 5.68034 20.6477 5.33569 20.7152C5.12891 20.7542 4.92212 20.772 4.72259 20.7826L4.31264 20.7542L3.81926 20.6797C3.81926 20.6797 3.7467 20.7294 3.65963 20.8004C3.52903 20.8075 3.43471 20.8252 3.40206 20.8643C3.36215 20.9069 3.35852 20.992 3.37303 21.1021C3.37303 21.1056 3.36578 21.1127 3.36578 21.1198L3.47824 22.5076L3.49275 22.536C3.53266 22.8626 3.64149 23.4092 3.7721 23.4092C3.87367 23.4092 3.96437 23.4234 4.05144 23.4411C4.2292 23.5689 4.49404 23.7109 4.84594 23.7854C4.95114 23.8387 5.04547 23.8777 5.12528 23.8777C5.36472 23.8706 7.0045 23.9664 7.28384 23.9593C7.5523 23.9522 8.72772 23.7357 9.02158 23.7286C10.5453 23.686 11.2128 23.8387 11.5212 23.7925C12.3265 23.6683 16.1684 23.97 16.3389 23.9381C16.5675 23.8955 18.229 23.8422 18.5301 23.8387C18.8022 23.8351 19.6802 23.6931 19.974 23.6896C20.4384 23.6825 20.8955 23.7712 21.5485 23.8387C22.7203 23.9593 23.3697 23.8777 24.8825 23.8635C25.2126 23.8635 26.2212 23.9345 26.428 23.8564C26.7835 23.718 27.4256 22.426 27.4909 22.0924C27.5308 21.8794 27.2079 22.064 27.2188 21.851L27.2079 21.8439Z" fill="white"/>
</g>
<defs>
<clipPath id="clip0_344_202">
<rect width="28.4459" height="23.955" fill="white" transform="translate(0.517578)"/>
</clipPath>
</defs>
</svg>
