<svg width="91" height="28" viewBox="0 0 91 28" fill="none" xmlns="http://www.w3.org/2000/svg">
<g clip-path="url(#clip0_222_75609)">
<path d="M33.4823 4.66931C33.5224 3.49227 33.1472 2.55912 33.1873 1.45631C33.1909 1.30785 32.1966 0.212105 31.7814 0.201501C31.6393 0.197966 30.3536 0.378234 30.1897 0.374699C29.8037 0.364095 28.0773 0.197966 27.0902 0.201501C26.6349 0.201501 25.4767 0.113134 24.7738 0.0530451C24.6499 0.0424411 22.8252 0.258055 22.6758 0.250986C21.6087 0.215639 20.1409 0.0530451 19.7256 0.00355983C19.3323 -0.0388561 16.5642 0.311075 15.9414 0.346422C15.2275 0.385303 14.6702 0.258055 13.9928 0.159085C13.2498 0.0495104 7.93577 0.501947 7.79736 0.501947C7.63346 0.501947 7.21096 0.689284 7.21825 0.855413C7.22917 1.09224 6.86859 2.2516 6.99607 2.53438C7.31659 3.24131 7.29838 4.67285 7.27652 5.4222C7.24739 6.37302 7.40036 7.24961 7.55333 8.31001C7.62982 8.82254 7.63346 10.1445 7.71359 10.7984C7.76094 11.166 7.71723 11.7846 7.71723 12.1487C7.70995 13.5802 7.85928 14.7148 8.0159 16.164C8.09967 16.9699 8.42382 19.8224 8.44204 20.6495C8.44568 20.8015 8.47117 20.904 8.50395 20.9818L8.63143 21.6498C8.63143 21.6498 8.40926 21.9079 8.80626 22.4628C8.80626 22.4628 8.94102 22.9718 9.64397 23.1026L10.0373 22.9753L10.7731 23.0283L11.0936 23.1026L11.3085 23.0566C12.2445 23.1238 13.7524 23.3076 14.0292 23.3076C14.3534 23.3076 15.6901 23.1697 16.0324 23.1697C16.3748 23.1697 18.6949 23.2475 19.0409 23.251C19.3651 23.2546 20.6835 23.1909 21.0113 23.1945C21.3501 23.1945 26.0267 23.3394 26.3508 23.3465C26.6896 23.3535 29.3702 23.3288 29.6616 23.3323C29.9275 23.3359 30.6851 22.9859 31.1731 22.9753C31.1695 22.8976 31.8724 21.8654 31.8834 21.7629C32.0254 20.6743 31.8251 20.9535 31.9781 20.1158C32.2185 18.7938 31.7741 17.1502 32.091 16.0332C32.1711 15.7469 32.7612 11.0812 32.7939 10.8055C32.9615 9.28911 33.2274 8.99574 33.2128 7.4829C33.2128 7.32384 33.1691 6.25284 33.1727 6.07257C33.18 5.8817 33.475 4.86372 33.4823 4.67638V4.66931Z" fill="#0055A2"/>
<path d="M30.3937 2.31445C30.3208 2.68559 30.2589 3.0532 30.1934 3.42434C30.5503 3.51624 30.9 3.6046 31.2532 3.70004C31.3115 3.3289 31.3771 2.9613 31.439 2.59369C31.0893 2.49826 30.7433 2.40635 30.3937 2.31445Z" fill="white"/>
<path d="M29.6934 6.28478C29.7261 6.54988 29.7589 6.81498 29.7953 7.07655C30.0576 7.07301 30.3125 7.06948 30.5711 7.06594C30.5311 6.80438 30.4946 6.54281 30.4619 6.28125C30.2033 6.28125 29.9483 6.28478 29.6934 6.28478Z" fill="white"/>
<path d="M14.8626 3.22445C14.553 3.16082 14.2471 3.0972 13.9375 3.03711C13.9484 3.37644 13.9594 3.7193 13.9594 4.06216C14.2507 4.07276 14.5421 4.09397 14.8335 4.11872C14.8481 3.81827 14.859 3.52843 14.8626 3.22798V3.22445Z" fill="white"/>
<path d="M9.20508 2.24759C9.27792 2.66468 9.35441 3.08177 9.42361 3.49886C9.79148 3.47058 10.1593 3.44584 10.5236 3.42817C10.4471 3.01815 10.3706 2.60106 10.2941 2.1875C9.92988 2.20871 9.5693 2.22638 9.20508 2.24759Z" fill="white"/>
<path d="M11.7148 5.84961C11.7549 6.16066 11.7986 6.46818 11.835 6.77569C12.141 6.76862 12.4433 6.76509 12.7456 6.76509C12.7019 6.45757 12.6582 6.15359 12.6145 5.84961C12.3195 5.84961 12.0171 5.84961 11.7185 5.84961H11.7148Z" fill="white"/>
<path d="M26.5254 3.67662C26.5582 3.93818 26.5946 4.20328 26.6274 4.46485C26.8896 4.45778 27.1482 4.45424 27.4032 4.45424C27.3667 4.18915 27.3267 3.93112 27.2939 3.66602C27.0353 3.66602 26.7803 3.66602 26.5254 3.67309V3.67662Z" fill="white"/>
<path d="M11.1406 10.4629C11.1698 10.4912 11.1989 10.5194 11.2317 10.5442L11.1406 10.4629Z" fill="#C6B67C"/>
<path d="M17.3898 7.25352C17.3315 7.03083 16.807 7.26058 16.4719 7.31714C16.2643 7.34895 15.9839 7.46559 15.7872 7.4868C15.5432 7.51155 15.1534 7.62465 15.0296 7.86148C14.9531 8.00286 15.1716 8.05942 15.27 8.1089C15.4448 8.19727 15.6269 8.29624 15.6961 8.49065C15.7653 8.67091 15.769 8.89006 15.8054 9.0774C15.8491 9.30008 15.8782 9.52984 15.9256 9.75252C15.9693 9.96107 15.9074 10.1873 15.9584 10.3817C16.013 10.5902 16.1514 10.9402 16.206 11.0992C16.3044 11.382 16.2862 11.3926 16.3772 11.4244C16.6832 11.5269 17.011 11.4456 17.4043 11.4845C17.6083 11.5022 17.805 11.6118 18.0709 11.64C18.293 11.6612 19.1052 11.693 19.342 11.7178C19.5678 11.739 19.8009 11.7425 20.0413 11.7673C20.2671 11.7885 20.5039 11.7213 20.7406 11.7461C20.981 11.7673 21.225 11.792 21.4654 11.8168C21.7022 11.8415 21.9389 11.845 22.172 11.8698C22.4015 11.891 22.6164 12.0182 22.8349 12.0359C23.0716 12.0571 23.312 11.9864 23.5342 12.0076C23.6507 12.0182 23.7636 12.0288 23.8802 12.043C24.1534 12.0677 24.4338 12.1101 24.707 12.1101C24.8381 12.1101 24.9437 12.1702 25.0676 12.2126C25.2205 12.2692 25.3772 12.3045 25.5338 12.3293C25.6758 12.3505 25.7523 12.4247 25.8689 12.4883C25.9927 12.559 26.0874 12.5237 26.1821 12.4247C26.2294 12.3752 26.2513 12.3151 26.2914 12.2586C26.3314 12.202 26.3861 12.1526 26.4152 12.0925C26.448 12.0324 26.4407 11.9581 26.4516 11.891C26.4844 11.6789 26.5135 11.4739 26.5245 11.2618C26.5317 11.1452 26.5099 11.0497 26.5427 10.9366C26.5791 10.8235 26.6301 10.7139 26.6374 10.5973C26.6519 10.3923 26.6483 10.1837 26.6665 9.97874C26.6884 9.74899 26.6665 9.53337 26.6774 9.34603C26.7029 8.99964 26.8741 8.62143 26.692 8.60376C26.6483 8.60376 26.499 8.58962 26.1894 8.47651C26.0036 8.40935 25.796 8.43056 25.6066 8.39521C25.5083 8.37754 25.4318 8.32805 25.3407 8.29624C25.2351 8.26089 25.1076 8.31391 24.9984 8.32098C24.8891 8.32098 24.809 8.39521 24.707 8.43409C24.6378 8.46237 24.5431 8.46237 24.514 8.55074C24.4848 8.64971 24.6086 8.69212 24.656 8.75575C24.7106 8.82997 24.7179 8.95369 24.7361 9.04205C24.7798 9.24706 24.8308 9.45561 24.8745 9.66062C24.8891 9.72778 24.9037 9.79494 24.9073 9.86209C24.9146 10.06 24.8964 10.1555 24.8927 10.3145C24.8818 10.5726 24.5904 10.417 24.5504 10.5019C24.5212 10.5726 24.5358 10.6751 24.1643 10.6786C23.4796 10.6857 22.824 10.6256 22.5581 10.5938C22.2339 10.5584 21.8442 10.5726 21.8879 10.4347C21.9353 10.2863 21.3161 10.5089 21.0793 10.4877C20.8426 10.4701 20.6277 10.4877 20.4019 10.463C20.1506 10.4418 20.034 10.4382 19.8118 10.4029C19.546 10.3605 19.0142 10.4382 18.7447 10.3039C18.6281 10.2509 18.2384 10.2156 18.2129 10.212C17.9106 10.1625 18.0344 9.77019 17.8378 9.28241C17.7139 8.97489 17.8669 8.8229 17.7394 8.51539C17.6119 8.2008 17.6229 8.21494 17.5063 7.89682C17.4116 7.61759 17.448 7.48327 17.3861 7.25352H17.3898Z" fill="white"/>
<path d="M17.0911 15.6735C16.9892 15.5144 16.8872 15.3554 16.7888 15.1928C16.7014 15.0514 16.6541 14.8641 16.4865 14.8146C16.3263 14.7686 16.166 14.705 16.0458 14.5919C15.9657 14.5177 15.9183 14.394 15.871 14.2915C15.8237 14.1783 15.9329 14.0652 15.9839 13.9663C16.0276 13.8814 16.0968 13.8178 16.1842 13.7719C16.2971 13.7082 16.461 13.6694 16.5922 13.6481C16.8289 13.6093 17.0693 13.634 17.306 13.5881C17.4044 13.5704 17.5464 13.5068 17.6484 13.5562L17.7431 13.5916C17.8742 13.6623 17.8706 13.8072 17.8997 13.9345C17.9361 14.0864 18.0709 14.2667 18.0928 14.4222C18.1073 14.5141 18.111 14.6661 18.1984 14.7262C18.2603 14.7722 18.3659 14.7474 18.4424 14.7474C18.7411 14.7474 19.0324 14.7015 19.3311 14.6909C19.6298 14.6803 19.9212 14.6237 20.2162 14.6025C20.3072 14.5954 20.3946 14.6272 20.4784 14.5848C20.595 14.5247 20.6897 14.4081 20.7916 14.3233C20.8608 14.2632 20.8936 14.2632 20.8827 14.3657C20.8681 14.4823 21.2542 14.4894 21.3088 14.4823C21.5347 14.4541 21.7605 14.4152 21.9863 14.3798C22.1757 14.3515 22.376 14.3515 22.5581 14.3021C22.6674 14.2702 22.7767 14.2066 22.824 14.1006C22.8932 13.9486 22.7876 13.8072 22.773 13.6588C22.7584 13.4431 23.017 13.3866 23.1846 13.3477C23.2793 13.33 23.3813 13.2699 23.476 13.2805C23.6107 13.2876 23.7564 13.376 23.8802 13.429C24.0296 13.4926 24.1753 13.5562 24.321 13.6234C24.514 13.7118 24.8855 13.7577 25.0421 13.8461C25.2752 13.9733 25.3881 14.0723 25.359 14.1713C25.3262 14.295 25.2606 14.6202 25.206 14.8464C25.1623 15.0267 25.1514 15.2246 25.0931 15.3907C25.0021 15.6523 25.0749 15.6594 24.8527 15.7972C24.5686 15.9775 24.4302 15.8856 24.0004 15.9209C23.8001 15.9351 23.3703 15.9775 23.1081 15.9987C22.8896 16.0164 22.682 16.0694 22.4306 16.0871C22.2012 16.1047 21.9644 16.0871 21.7277 16.1047C21.4982 16.1224 21.2287 16.0588 20.992 16.0765C20.7589 16.0941 20.5258 16.0941 20.2999 16.1083C20.0741 16.1224 19.8519 16.133 19.6371 16.1472C19.404 16.1613 19.1781 16.2461 18.9669 16.2567C18.7046 16.2709 18.4752 16.2815 18.2822 16.285C17.958 16.2956 17.5027 16.2143 17.4372 16.1966C17.3206 16.1578 17.2587 15.9527 17.0839 15.677L17.0911 15.6735Z" fill="white"/>
<path d="M22.362 8.04784C22.311 7.963 22.2382 7.88171 22.1835 7.80394C22.1034 7.68377 22.0051 7.5954 21.8703 7.54591C21.7501 7.5035 21.619 7.53884 21.4988 7.54591C21.3458 7.56005 21.12 7.62014 20.967 7.58126C20.9015 7.58126 20.6756 7.52824 20.6064 7.52824C20.4717 7.56712 20.5445 7.63075 20.4863 7.86403C20.4098 8.17862 20.468 8.93504 20.3916 9.24962C20.3187 9.53593 20.2204 9.70913 20.1512 9.99897C20.0783 10.2888 20.1985 10.7094 20.1475 10.9887C20.0856 11.2997 20.0747 11.2927 20.0346 11.6072C19.9909 11.9183 19.7797 11.8865 19.7396 12.1975C19.6959 12.5156 19.7869 12.5333 19.7432 12.8479C19.7032 13.159 19.6704 13.1554 19.6267 13.4629C19.5866 13.7705 19.5174 14.3926 19.4737 14.7107C19.43 15.0253 19.3062 14.997 19.2625 15.3116C19.2188 15.6226 19.4264 15.6509 19.3863 15.9619C19.3426 16.273 19.0767 16.8597 19.0366 17.1567C18.9929 17.4995 18.9602 17.8035 18.9966 18.1428C19.0549 18.7331 18.7161 19.0406 18.6506 19.5355C18.6141 19.8324 18.8473 19.8607 18.8072 20.154C18.7708 20.4439 18.4721 20.4898 18.7161 20.6878C19.0075 20.9281 19.0731 20.8398 19.4664 20.8433C19.8124 20.8468 20.3333 20.9529 20.5882 20.7585C20.8468 20.5605 20.6392 20.3379 20.6866 20.0374C20.7339 19.7264 20.7121 19.7476 20.7594 19.4365C20.8104 19.1325 20.723 19.1184 20.774 18.8144C20.8213 18.5104 20.9925 17.9131 21.0399 17.5985C21.0872 17.291 21.1455 17.298 21.1928 16.987C21.2402 16.6759 21.1783 16.6229 21.2256 16.3119C21.2766 16.0008 21.0107 16.1457 21.0581 15.8312C21.1054 15.5307 21.1018 15.5307 21.1491 15.2303C21.1965 14.9228 21.1054 14.9051 21.1528 14.5976C21.2001 14.3007 21.4478 13.2261 21.4951 12.9327C21.5352 12.6641 21.5425 12.5086 21.5898 12.2435C21.6445 11.9289 21.5971 11.9748 21.6627 11.6603C21.7283 11.3421 21.7282 11.4128 21.7938 11.0947C21.8557 10.7872 21.9067 10.7448 21.9686 10.4408C22.0306 10.1262 21.9723 10.0909 22.0342 9.77628C22.0998 9.46523 22.1435 9.53593 22.2017 9.22488C22.2309 9.08703 22.2564 8.94917 22.2855 8.81132C22.3037 8.70175 22.3329 8.59571 22.3584 8.48613C22.3839 8.36949 22.4348 8.26345 22.4021 8.14327C22.3948 8.10792 22.3766 8.07611 22.3584 8.04077L22.362 8.04784Z" fill="white"/>
<path d="M11.3944 18.6213C11.4745 18.5966 11.5692 18.6037 11.653 18.6001C11.7914 18.5966 11.9116 18.6213 12.0463 18.6355C12.2321 18.6567 12.4251 18.6213 12.6072 18.6072C13.3539 18.5506 14.1078 18.54 14.8581 18.5436C15.2952 18.5436 15.7286 18.5577 16.1657 18.5648C16.3842 18.5683 16.9524 18.5931 17.1746 18.5966C17.3858 18.6001 17.6153 18.5789 17.8338 18.586C18.0524 18.5895 18.2855 18.639 18.5113 18.6461C18.7225 18.6532 18.9374 18.7062 19.1559 18.7168C19.3708 18.7238 19.5529 18.6602 19.7715 18.6673C19.9937 18.6708 20.2595 18.7557 20.4817 18.7627C20.6966 18.7733 20.9079 18.685 21.1191 18.6956C21.3413 18.7062 21.5562 18.7521 21.7711 18.7592C21.9932 18.7698 22.2773 18.6673 22.4959 18.6744C22.7071 18.685 22.8528 18.7026 23.0568 18.7097C23.2717 18.7203 23.4829 18.6744 23.6905 18.6814C23.9054 18.692 24.1203 18.6708 24.3315 18.6814C24.5501 18.692 25.151 18.8087 25.3623 18.8193C25.5881 18.8299 25.4133 18.8582 25.6245 18.8652C25.8321 18.8758 26.0361 18.9713 26.2291 18.9783C26.4404 18.9854 26.648 18.8617 26.8374 18.8723C27.0086 18.8829 27.1688 18.9642 27.3364 18.9607C27.4639 18.9607 27.584 18.9147 27.7152 18.9147C28.0138 18.9112 28.3234 18.9395 28.6221 18.9218C28.8297 18.9076 28.9899 18.8652 29.1866 18.9889C29.4999 19.1869 29.3979 19.5792 29.4015 19.8761C29.4015 20.0529 29.3542 20.2508 29.3287 20.4276C29.2886 20.7068 29.3214 20.834 29.1138 20.9896C28.8515 21.184 28.8734 21.1734 28.4545 21.1663C28.2615 21.1663 28.1996 20.9401 27.9483 20.9365C26.7791 20.9189 26.1199 20.6432 24.8924 20.774C24.5027 20.8128 23.6505 20.9436 23.2935 20.9401C23.0677 20.9401 22.8455 21.0072 22.6416 21.0072C22.4085 21.0072 22.1826 20.9436 21.9823 20.9436C21.7419 20.9436 21.5307 20.9012 21.3522 20.9047C21.0208 20.9083 20.7731 20.7563 20.7185 20.7704C19.7861 20.9754 18.8464 20.7103 17.8848 20.7139C16.712 20.7139 15.8707 20.8941 14.6906 20.9012C14.4648 20.9012 14.1952 21.1203 13.9876 21.1203C13.7727 21.1203 13.3102 21.0214 13.1281 21.0214C12.9023 21.0214 12.7201 21.0143 12.5526 21.0143C12.1847 21.0143 12.2867 21.1097 12.0755 20.9118C11.8096 20.6608 11.9298 20.6962 11.8059 20.325C11.7404 20.12 11.5801 19.9221 11.4672 19.7383C11.3907 19.6146 11.3142 19.4873 11.2414 19.3636C11.2013 19.2929 11.1722 19.2328 11.1503 19.1621C11.1431 19.1409 11.0556 18.9783 11.0629 18.9713C11.1285 18.8617 11.2414 18.7238 11.3543 18.6532C11.3689 18.6426 11.3834 18.6355 11.4053 18.6284L11.3944 18.6213Z" fill="white"/>
<path d="M28.8807 12.5016C28.7678 12.385 28.6622 12.2542 28.491 12.2153C28.389 12.1906 28.298 12.2189 28.1996 12.2153C27.8973 12.1941 27.901 12.2542 27.8209 12.5052C27.7699 12.6536 27.7116 12.7915 27.6788 12.9435C27.6278 13.1732 27.5513 13.3747 27.4785 13.5938C27.3911 13.8519 27.4093 14.1523 27.2854 14.3962C27.1616 14.6366 27.005 14.8663 26.8848 15.1138C26.5097 15.8914 26.5169 16.6902 26.2219 17.4537C26.109 17.74 26.0471 17.7223 25.9305 18.0086C25.8176 18.302 25.8796 18.3232 25.763 18.6201C25.6246 18.9842 24.7577 19.9103 25.3624 19.9987C25.5736 20.0305 26.608 19.9562 26.8192 19.9774C27.0851 20.0022 27.3401 19.6593 27.5003 19.4755C27.6387 19.3165 27.6825 19.0796 27.7553 18.8958C27.8245 18.712 27.9265 18.5318 27.9957 18.3409C28.0685 18.1571 28.1778 17.9839 28.2434 17.7966C28.3198 17.6022 28.4255 17.4183 28.4983 17.2239C28.5675 17.0331 28.6258 16.8387 28.695 16.6584C28.7678 16.4605 28.7351 16.2307 28.8043 16.0434C28.8735 15.856 29.0774 15.7182 29.1393 15.545C29.2085 15.3506 29.1612 15.135 29.2231 14.9653C29.2996 14.7532 29.5254 14.4068 29.58 14.2442C29.6529 14.0251 29.7986 13.8271 29.9224 13.6257C29.9516 13.5762 30.0499 13.4701 30.039 13.4136C30.0208 13.3111 29.7694 13.205 29.6966 13.1273C29.6238 13.053 29.58 12.9717 29.4854 12.9046C29.296 12.7667 29.0446 12.6784 28.8807 12.5087V12.5016Z" fill="white"/>
<path d="M29.2016 13.1235C29.0742 12.9432 28.5825 12.7559 28.4477 12.5933C28.2364 12.3352 27.9232 12.1938 27.8577 12.3069C27.6974 12.5827 27.7338 12.5685 27.6209 12.8654C27.6209 12.8654 27.6136 12.869 27.6136 12.876C27.3004 13.6713 26.8415 14.4065 26.47 15.1806C26.0985 15.9512 26.1057 16.7394 25.8107 17.4923C25.6978 17.7786 25.6359 17.7574 25.5266 18.0402C25.4137 18.33 25.4756 18.3512 25.3627 18.6446C25.2243 19.0051 24.372 19.9206 24.9657 20.009C25.1733 20.0408 26.2004 19.9666 26.4081 19.9878C26.6666 20.0125 26.9252 19.6732 27.0819 19.4894C27.2166 19.3339 27.264 19.1006 27.3332 18.9168C27.4024 18.7365 27.5007 18.5562 27.5736 18.3654C27.6428 18.1851 27.7484 18.0119 27.8176 17.8246C27.8941 17.6337 27.9997 17.4499 28.0689 17.259C28.1417 17.0717 28.1964 16.8808 28.2656 16.7005C28.3421 16.5026 28.3056 16.2799 28.3749 16.0926C28.4441 15.9052 28.6444 15.7674 28.7063 15.5977C28.7755 15.4068 28.7281 15.1912 28.7864 15.0251C28.8629 14.813 29.0851 14.4702 29.1397 14.3111C29.2344 14.0283 29.6023 13.5335 29.6023 13.484C29.6023 13.3603 29.3655 13.3603 29.2016 13.1235Z" fill="#D6C560"/>
<path d="M14.654 18.5704C14.603 18.383 14.5411 18.1921 14.4864 17.9907C14.4354 17.8033 14.4464 17.6019 14.3917 17.4075C14.3371 17.2237 14.246 17.0469 14.195 16.8631C14.1368 16.6687 14.1477 16.4602 14.0894 16.2693C13.7507 15.1135 13.3646 13.8551 13.0004 12.6851C12.8838 12.3211 12.9348 12.1267 12.6325 11.9817C12.4249 11.8792 12.2173 11.9994 12.0024 11.9393C11.7875 11.8792 11.6054 11.8616 11.376 11.8474C11.1902 11.8333 10.9972 11.858 10.8114 11.8262C10.6329 11.7944 10.4836 11.7096 10.3015 11.7414C10.174 11.7661 10.123 11.8934 10.0028 11.9393C9.89722 11.9782 9.72967 12.0277 9.76974 12.1691C9.82073 12.3246 10.4472 12.6533 10.5128 12.8548C10.5674 13.0174 10.6439 13.1941 10.7131 13.385C10.7786 13.5688 11.0409 14.357 11.1174 14.5585C11.1866 14.7494 11.4306 15.1276 11.5071 15.3185C11.5763 15.5058 11.773 16.0607 11.8422 16.2445C11.9187 16.439 12.1445 16.6899 12.2173 16.8808C12.2938 17.0681 12.3921 17.7786 12.4686 17.9659C12.5997 18.3053 12.8037 19.3197 13.3136 19.3551C13.5285 19.3727 14.297 19.3056 14.5156 19.3444C14.7487 19.3833 14.7341 18.8567 14.6576 18.5704H14.654Z" fill="white"/>
<path d="M14.1553 18.836C14.1043 18.6487 14.0424 18.4578 13.9878 18.2564C13.9368 18.069 13.9477 17.864 13.8894 17.6731C13.8385 17.4893 13.7474 17.3126 13.6891 17.1253C13.6345 16.9309 13.6418 16.7223 13.5835 16.5314C13.2448 15.3791 12.8623 14.1173 12.4945 12.9473C12.3779 12.5832 12.4289 12.3888 12.1266 12.2439C11.8025 12.0848 11.8207 12.2792 11.4637 12.2015C11.0631 12.1131 11.0886 12.2085 10.6916 12.1237C10.3091 12.0389 9.91214 12.0247 9.73003 12.0884C9.7446 12.1979 9.66811 12.357 9.74096 12.6009C9.7883 12.7564 9.94492 12.919 10.0105 13.1205C10.0688 13.2831 10.1452 13.4598 10.2108 13.6507C10.2727 13.8345 10.5386 14.6227 10.6151 14.8242C10.6843 15.0151 10.9283 15.3933 11.0012 15.5841C11.0704 15.7715 11.267 16.3264 11.3399 16.5102C11.4127 16.7046 11.6422 16.9556 11.715 17.1465C11.7879 17.3338 11.8899 18.0443 11.9627 18.2316C12.0938 18.5709 12.2978 19.5854 12.8077 19.6207C13.0226 19.6349 13.7911 19.5712 14.0096 19.6101C14.2391 19.649 14.2282 19.1188 14.1517 18.836H14.1553Z" fill="#D6C560"/>
<path d="M11.0347 18.9992C11.0748 18.9391 11.2387 19.0558 11.6248 19.0204C13.1472 18.879 14.2872 18.8896 15.8024 18.925C16.0173 18.932 16.5855 18.9533 16.8113 18.9568C17.0225 18.9603 17.252 18.9391 17.4705 18.9462C17.6891 18.9497 17.9222 19.0027 18.148 19.0063C18.3592 19.0133 18.5741 19.0664 18.789 19.077C19.0075 19.084 19.1897 19.0204 19.4082 19.031C19.6304 19.0381 19.8926 19.1194 20.1184 19.1264C20.3297 19.1335 20.5482 19.0487 20.7595 19.0558C20.978 19.0628 21.1965 19.1123 21.4151 19.1229C21.6336 19.13 21.9177 19.0275 22.1399 19.0345C22.3511 19.0452 22.4968 19.0628 22.7008 19.0664C22.9157 19.077 23.1269 19.031 23.3345 19.0416C23.5494 19.0522 23.7643 19.031 23.9755 19.0416C24.1977 19.0522 24.795 19.1689 25.0063 19.1795C25.2285 19.1865 25.0573 19.2148 25.2649 19.2254C25.4761 19.236 25.6765 19.3279 25.8695 19.3385C26.0807 19.3491 26.2884 19.2254 26.4777 19.236C26.689 19.2466 26.8893 19.3845 27.0787 19.3915C27.3592 19.4057 27.6505 19.3915 27.9346 19.3986C28.1131 19.3986 28.2916 19.3986 28.47 19.388C28.6012 19.3774 28.7505 19.3456 28.8598 19.4304C29.1985 19.6991 29.0127 20.4378 28.9654 20.7842C28.929 21.0634 29.0346 21.021 28.8233 21.1766C28.5611 21.3674 28.6667 21.3109 28.2515 21.3073C28.0621 21.3073 27.8363 21.2967 27.585 21.2932C26.4122 21.2791 25.7602 21.0034 24.5292 21.1341C24.1394 21.173 23.2908 21.3038 22.9302 21.3003C22.7044 21.3003 22.4822 21.3639 22.2746 21.3674C22.0415 21.3674 21.8193 21.3038 21.619 21.3038C21.3823 21.3038 21.1674 21.2649 20.9889 21.2649C20.6611 21.2685 20.4098 21.1165 20.3552 21.1306C19.4228 21.3356 18.4831 21.0705 17.5215 21.074C16.8222 21.0776 16.1338 21.1518 15.4418 21.2084C15.1249 21.2331 14.8081 21.2366 14.5021 21.2967C14.1743 21.3639 13.8247 21.2897 13.4859 21.3568C13.3767 21.378 13.282 21.4275 13.1654 21.4275C13.0307 21.4275 12.8959 21.3816 12.7575 21.3851C12.5353 21.3851 12.3496 21.378 12.182 21.378C11.8142 21.378 11.9161 21.4735 11.7049 21.2755C11.439 21.0281 11.5556 21.0599 11.439 20.6888C11.3662 20.4767 11.3698 20.2187 11.3042 20.003C11.2241 19.7273 10.94 19.13 11.0347 19.0063V18.9992Z" fill="#D6C560"/>
<path d="M22.3659 2.59436C22.3659 2.59436 22.3877 2.61203 22.3986 2.62617C22.5006 2.73221 22.5735 2.87006 22.6754 2.9761C22.8029 3.11042 22.9268 3.24474 23.047 3.38259C23.1489 3.49923 23.3128 3.5982 23.4403 3.6901C23.6115 3.81735 23.7062 4.00115 23.841 4.15314C23.9174 4.23444 23.9903 4.30513 24.0449 4.39703C24.1032 4.50307 24.1651 4.61618 24.2452 4.71162C24.3217 4.80352 24.3909 4.88835 24.3982 5.01207C24.4055 5.14992 24.3399 5.30544 24.2562 5.41148C24.1615 5.53166 24.1068 5.67305 24.0194 5.79676C23.9721 5.86392 23.9174 5.95229 23.8519 6.00531C23.8082 6.04419 23.7499 6.05126 23.6953 6.06893C23.4622 6.14316 23.2436 6.26334 23.0834 6.37644C22.7665 6.60973 22.7337 6.60973 22.5589 6.63801C22.3076 6.67336 21.8559 6.73698 21.5027 6.75819C21.2331 6.77586 21.0874 6.75819 20.7924 6.64861C20.4938 6.53904 20.2242 6.4436 20.0021 6.34817C19.8928 6.30222 19.7908 6.16437 19.7034 5.95229C19.6087 5.74021 19.3647 5.16052 19.4229 5.05448C19.5213 4.87775 20.0239 4.16375 20.0822 4.06124C20.1915 3.8633 20.5047 3.72545 20.6977 3.61234C20.7851 3.56285 20.8835 3.53104 20.9636 3.47802C21.0583 3.4144 21.0911 3.29422 21.1275 3.19172C21.1858 3.02559 21.2295 2.85592 21.2841 2.68979C21.295 2.66152 21.3242 2.6297 21.346 2.60496C21.3679 2.56961 21.3934 2.5378 21.4152 2.50246C21.4262 2.48832 21.4262 2.48125 21.4262 2.46711C21.4335 2.4459 21.4444 2.42823 21.4553 2.40702C21.4735 2.37521 21.4881 2.3434 21.5172 2.31512C21.5354 2.29391 21.5609 2.28331 21.5791 2.2621C21.6083 2.23029 21.6374 2.19141 21.6884 2.19141C21.7103 2.19141 21.7321 2.19141 21.7503 2.19141C21.7722 2.19141 21.7977 2.19141 21.8232 2.19141C21.8377 2.19141 21.8559 2.19141 21.8705 2.20201C21.8778 2.20908 21.8851 2.21615 21.896 2.22322C21.9252 2.24443 21.9543 2.2621 21.9871 2.27624C22.0381 2.30098 22.0745 2.33633 22.1073 2.37521C22.1437 2.41762 22.1801 2.46004 22.2202 2.49539C22.2602 2.53427 22.3185 2.55901 22.3659 2.59789V2.59436Z" fill="white"/>
<path d="M22.8125 4.64783C22.7761 4.40748 22.6085 4.17772 22.4009 4.06108C22.1787 3.93737 21.8655 4.04341 21.6288 4.06108C21.4175 4.07522 21.1844 4.09996 21.0059 4.22721C20.9367 4.27669 20.8603 4.35092 20.7874 4.44989C20.6344 4.6443 20.5543 4.81043 20.5434 4.94474C20.5361 5.13562 20.6271 5.2664 20.7255 5.41839C20.8056 5.5421 20.8493 5.67642 20.9987 5.73651C21.2063 5.82134 21.4102 5.76832 21.6215 5.74711C21.8582 5.72237 22.0658 5.69056 22.2771 5.56684C22.5138 5.42546 22.6923 5.19217 22.787 4.93061C22.8161 4.84224 22.8234 4.7468 22.8088 4.65137L22.8125 4.64783Z" fill="#0055A2"/>
<path d="M23.7051 4.29828L23.3956 3.97663L23.1843 3.77869C23.1843 3.77869 22.4267 2.94097 22.1681 2.66527L21.8731 2.28706C21.8148 2.19162 21.7566 2.10326 21.6655 2.09619C21.5708 2.08912 21.5089 2.15981 21.4069 2.27646L21.1774 2.52388C21.0682 2.63346 20.2523 3.17779 19.9755 3.34392C19.655 3.53479 19.4802 3.65144 19.4219 3.77162L19.1742 4.13922L18.759 4.76486C18.7299 4.81081 18.6789 4.91685 19.0322 5.74042C19.1378 5.98431 19.2543 6.12924 19.3855 6.18579L20.0666 6.44735L20.1795 6.48977C20.4781 6.60288 20.642 6.62409 20.9298 6.60641L21.9933 6.4827C22.1863 6.45089 22.2446 6.43675 22.5578 6.207C22.7254 6.08682 22.9403 5.97725 23.1442 5.91362C23.6141 5.7581 23.6979 5.48239 23.8181 5.09711L23.8399 5.02996C23.8618 4.9628 23.8727 4.8921 23.8727 4.81788C23.8727 4.64468 23.8108 4.46441 23.7015 4.30182M22.3284 4.89917C22.2373 5.09358 22.1463 5.18195 21.9168 5.31626C21.6582 5.46472 21.396 5.52481 21.1264 5.48593C21.0245 5.48593 20.9006 5.45765 20.7549 5.40816C20.5801 5.35868 20.4745 5.30566 20.4381 5.24911C20.2487 5.0547 20.1649 4.8709 20.1795 4.69416C20.1868 4.55985 20.2669 4.39018 20.4199 4.19931C20.4963 4.10034 20.5728 4.02611 20.642 3.97663C20.8351 3.84231 21.141 3.79283 21.4324 3.82817C21.8585 3.88119 22.6817 4.40786 22.3284 4.90271V4.89917Z" fill="#D6C560"/>
<path d="M15.883 14.1489C15.9485 14.0464 16.0869 13.997 16.2071 13.9934C16.2982 13.9934 16.3856 14.0111 16.4766 14.0005C16.5713 13.9899 16.6624 13.9722 16.7534 13.9581C16.9428 13.9263 17.1213 13.8379 17.3034 13.9263C17.3981 13.9757 17.4418 14.0747 17.4673 14.1737C17.5037 14.3257 17.6385 14.5059 17.6567 14.6615C17.6822 14.8135 17.7806 15.0644 17.9335 15.068C18.2941 15.068 18.6838 15.0503 19.0408 15.0008C19.2593 14.9725 19.4414 14.8948 19.6709 14.8771C20.0314 14.8523 20.3738 14.7993 20.7344 14.8099C21.1241 14.8205 21.5248 14.6897 21.9145 14.6721C21.991 14.6721 22.4171 14.7074 22.4426 14.6049C22.5045 14.3787 22.6648 14.1914 22.7048 13.9581C22.7267 13.8344 22.6975 13.6612 22.7922 13.5622C22.9452 13.3961 23.1346 13.5374 23.3022 13.6046C23.4843 13.6788 23.6919 13.7707 23.8922 13.8626C24.0889 13.951 24.4604 14.0005 24.617 14.0889C24.8501 14.2161 24.963 14.3115 24.9375 14.4105C24.9047 14.5378 24.8392 14.8629 24.7845 15.0892C24.7408 15.2659 24.7299 15.4674 24.6716 15.6335C24.5806 15.8951 24.6534 15.9021 24.4312 16.04C24.1472 16.2203 24.0087 16.1284 23.579 16.1637C23.3823 16.1778 22.978 16.2591 22.7194 16.2803C22.4972 16.2945 22.2605 16.3122 22.0128 16.3298C21.7834 16.3475 21.5502 16.3298 21.3062 16.3475C21.0731 16.3652 20.8036 16.3016 20.5705 16.3192C20.341 16.3369 20.1043 16.3369 19.8785 16.351C19.6527 16.3652 19.4305 16.3758 19.2156 16.3899C18.9825 16.4041 18.753 16.4854 18.5454 16.4995C18.2832 16.5136 18.0537 16.5242 17.857 16.5278C17.5948 16.5348 17.2196 16.6762 16.9902 16.4854C16.819 16.3404 16.7717 16.1001 16.6551 15.9198C16.4657 15.6194 16.2727 15.3225 16.1088 15.0114C16.0214 14.8417 15.9594 14.6579 15.883 14.4812C15.8356 14.361 15.821 14.255 15.883 14.1631V14.1489Z" fill="#D6C560"/>
<path d="M16.9703 7.56417C16.912 7.34149 16.3876 7.57124 16.0488 7.62426C15.8449 7.65607 15.5608 7.77272 15.3641 7.79393C14.9234 7.83988 14.9817 7.98833 15.0691 8.23929C15.1055 8.3418 15.2293 8.55034 15.284 8.83312C15.3204 9.01338 15.4552 9.8511 15.5025 10.0596C15.5462 10.2682 15.4843 10.4944 15.5353 10.6888C15.5899 10.8974 15.7283 11.2473 15.7866 11.4063C15.8886 11.6927 15.8631 11.6962 15.9578 11.7315C16.2637 11.8305 16.5915 11.7527 16.9849 11.7916C17.1889 11.8093 17.3855 11.9189 17.6514 11.9436C17.8736 11.9648 18.6858 12.0002 18.9226 12.0214C19.1484 12.0461 19.3815 12.0497 19.6219 12.0709C19.8477 12.0921 20.0881 12.0214 20.3212 12.0461C20.5616 12.0709 20.8019 12.0921 21.046 12.1168C21.2827 12.1416 21.5195 12.1451 21.7526 12.1698C21.982 12.191 22.1969 12.3148 22.4154 12.336C22.6522 12.3607 22.8926 12.2865 23.1148 12.3112C23.3551 12.336 24.2875 12.4279 24.4988 12.4491C24.7501 12.4738 24.9686 12.5339 25.1544 12.5516C25.4822 12.5799 25.6934 12.541 25.7481 12.541C26.1487 12.541 26.1669 12.4774 26.1633 12.1204C26.1633 12.0284 26.0504 11.8093 26.0686 11.5018C26.0832 11.3144 26.207 11.12 26.2216 10.9009C26.2361 10.6959 26.2325 10.4873 26.2471 10.2823C26.2689 10.049 26.2471 9.83696 26.2616 9.64962C26.2871 9.30323 26.4547 8.92502 26.2762 8.90734C26.2325 8.90734 26.0868 8.8932 25.7736 8.7801C25.6097 8.71647 25.3147 8.6988 25.1362 8.64931C24.9395 8.59629 24.761 8.46551 24.6117 8.46198C24.4587 8.46198 24.4952 8.76242 24.4769 9.05226C24.466 9.22193 24.4879 9.98188 24.4952 10.1621C24.5024 10.3566 24.4842 10.4555 24.4769 10.6146C24.466 10.8691 24.3713 10.8337 24.2693 10.862C24.1965 10.8832 23.9197 10.915 23.5482 10.9009C23.3406 10.8938 22.3608 10.862 22.1059 10.8443C21.8764 10.8302 21.6397 10.7595 21.3993 10.7418C21.1625 10.7242 20.9039 10.809 20.6672 10.7913C20.4304 10.7701 20.2155 10.7842 19.9897 10.7666C19.7384 10.7454 19.5017 10.6994 19.2795 10.6641C19.01 10.6217 18.602 10.6817 18.3325 10.5474C18.216 10.4909 17.8226 10.4591 17.8008 10.4555C17.4948 10.406 17.6223 10.0773 17.422 9.58953C17.3018 9.27848 17.4511 9.13003 17.3273 8.82251C17.1998 8.50793 17.2071 8.5256 17.0942 8.20395C16.9958 7.92824 17.0322 7.79039 16.974 7.56064L16.9703 7.56417Z" fill="#D6C560"/>
<path d="M22.0299 7.79061C22.0335 7.77293 22.0408 7.75173 22.0481 7.73052C22.1027 7.52551 21.8405 7.55378 21.6911 7.52904C21.5491 7.50783 21.4216 7.48309 21.2759 7.47956C21.1193 7.47956 21.0028 7.40533 20.8534 7.39119C20.6713 7.37705 20.4856 7.39119 20.3034 7.38765C20.227 7.38765 20.1505 7.37352 20.1031 7.43714C20.0667 7.4937 20.0776 7.61034 20.0631 7.67396C19.9866 7.98855 20.0448 8.74496 19.9684 9.05955C19.8955 9.34586 19.7972 9.52259 19.728 9.8089C19.6551 10.0987 19.7753 10.5194 19.7243 10.7986C19.6661 11.1132 19.6515 11.1026 19.6114 11.4172C19.5677 11.7247 19.3565 11.6999 19.3164 12.011C19.2763 12.3256 19.3638 12.3468 19.3164 12.6614C19.2727 12.9724 19.2472 12.9689 19.1999 13.2764C19.1598 13.5839 19.0942 14.206 19.0505 14.5241C19.0068 14.8352 18.883 14.8104 18.8393 15.125C18.7956 15.4361 19.0032 15.4608 18.9631 15.7719C18.923 16.0829 18.6535 16.6697 18.6135 16.9666C18.5697 17.3094 18.5406 17.6134 18.5734 17.9528C18.6317 18.543 18.2929 18.847 18.2274 19.3454C18.1837 19.6388 18.4241 19.6706 18.384 19.964C18.3439 20.2538 18.0489 20.2998 18.2929 20.5012C18.588 20.7416 18.6499 20.6497 19.0432 20.6532C19.3892 20.6568 19.9101 20.7628 20.1687 20.5684C20.4273 20.3705 20.2197 20.1478 20.267 19.8438C20.3144 19.5327 20.2925 19.554 20.3399 19.2464C20.3909 18.9389 20.3034 18.9283 20.3544 18.6208C20.3981 18.3204 20.5693 17.7195 20.6203 17.4049C20.6713 17.0974 20.6021 17.1009 20.6495 16.7899C20.6968 16.4823 20.6604 16.4611 20.7077 16.1501C20.7551 15.8355 20.5875 15.9521 20.6385 15.6411C20.6859 15.3406 20.6822 15.3406 20.7296 15.0402C20.7769 14.7327 20.6859 14.715 20.7332 14.4075C20.7806 14.1106 21.0283 13.036 21.0756 12.7391C21.1193 12.4705 21.1229 12.3185 21.1739 12.0499C21.2286 11.7353 21.1812 11.7812 21.2431 11.4667C21.3087 11.145 21.3087 11.2192 21.3743 10.9011C21.4362 10.5936 21.4872 10.5512 21.5491 10.2472C21.6146 9.93261 21.5527 9.89726 21.6146 9.58268C21.6766 9.27163 21.7239 9.34586 21.7858 9.03127C21.8441 8.7379 21.8951 8.43745 21.9534 8.14054C21.9789 8.01682 22.0007 7.89665 22.0299 7.77647V7.79061Z" fill="#D6C560"/>
<path d="M7.09713 19.6635C6.90773 18.0729 6.83125 17.2281 6.55808 15.436C6.52894 15.2522 6.41968 12.8946 6.35776 12.3891C6.23756 11.4843 5.97168 10.4946 5.84785 9.72046L5.85513 9.66744C5.94619 9.23975 5.93162 6.68066 5.93162 6.68066V6.04088L5.71673 4.42201L5.61839 4.12156V3.82465L5.44356 1.26555C5.44356 0.968643 5.31972 0.820188 5.17039 0.74596C5.17039 0.731821 5.17039 0.717682 5.17039 0.703544C5.11212 0.696474 5.04656 0.696474 4.98828 0.689405C4.94458 0.682336 4.90451 0.678801 4.86445 0.678801C4.26348 0.643455 3.67344 0.392494 3.09068 0.332404C2.87215 0.311196 1.74306 0.441979 1.72121 0.441979C1.24044 0.449048 0.858002 0.784841 0.814295 0.940366C0.766946 1.13477 0.577551 1.87705 0.599404 2.07146C0.628542 2.34363 1.23679 4.3195 1.24772 4.68357C1.28414 5.60965 1.35699 5.93838 1.3497 6.73014C1.3497 6.79377 1.63015 8.73429 1.6338 8.79792C1.67022 10.081 2.16556 12.2371 2.57349 14.98C2.63905 15.4325 2.66454 16.3833 2.81388 17.7972C2.83573 18.0128 2.97049 20.1901 2.99599 20.3916C3.11618 21.2399 3.24002 21.5545 3.34564 22.6715C3.44762 22.9366 4.21613 23.0567 4.64227 23.0037C5.00649 22.9578 5.74951 23.1592 6.14287 23.1451C6.41603 23.1345 6.57629 22.6573 6.87131 22.6715C6.84946 21.551 7.22096 20.7486 7.09349 19.6635H7.09713Z" fill="#D0C8BA"/>
<path d="M31.4527 25.4819C31.4746 25.1037 31.4746 24.9977 31.4782 24.8775C31.4819 24.7715 31.5984 24.2696 30.9538 24.3155C30.6988 24.3332 28.2039 24.5028 27.8834 24.4958C27.592 24.4852 24.6819 24.3084 24.3504 24.3014C24.0335 24.2943 22.8535 24.4498 22.5293 24.4463C22.2197 24.4392 19.641 24.3473 19.3132 24.3438C18.9927 24.3367 18.6649 24.464 18.3444 24.4569C18.0057 24.4498 17.6706 24.3049 17.3318 24.3014C17.004 24.2978 15.8058 24.4852 15.478 24.4781C15.1574 24.4746 13.7953 24.3791 13.4602 24.3791C13.1287 24.3756 10.9543 24.2589 10.2477 24.2483C9.62855 24.2413 8.94745 24.312 8.32828 24.3261C8.14616 24.3332 6.56908 24.0787 6.16844 24.1564C5.92805 24.2024 5.68767 24.2236 5.45821 24.2377L4.98472 24.2059L4.41289 24.1211C4.41289 24.1211 4.33276 24.1812 4.23078 24.2625C4.0778 24.2731 3.97218 24.2908 3.93211 24.3367C3.88477 24.3862 3.88112 24.4852 3.89569 24.6159C3.89569 24.623 3.88841 24.6301 3.88477 24.6336L4.01589 26.2525L4.03045 26.2878C4.0778 26.6696 4.20164 27.3058 4.35461 27.3058C4.46752 27.3058 4.57679 27.32 4.67877 27.3412C4.88273 27.4896 5.18868 27.6558 5.59661 27.7441C5.7168 27.8042 5.82607 27.8502 5.92077 27.8502C6.19758 27.8431 8.09517 27.9527 8.41569 27.9456C8.72528 27.935 10.0838 27.684 10.4226 27.6734C12.1854 27.6275 12.9575 27.8042 13.3145 27.7477C14.2432 27.6027 18.6868 27.9562 18.8834 27.9173C19.1457 27.8714 21.0651 27.8077 21.4148 27.8007C21.728 27.7971 22.7405 27.631 23.0829 27.6239C23.6183 27.6133 24.1501 27.7194 24.9004 27.7971C26.2589 27.9421 27.0056 27.8396 28.7539 27.829C29.1363 27.8254 30.2982 27.9138 30.5385 27.8219C30.9538 27.6628 31.6931 26.1535 31.7696 25.7647C31.8133 25.5138 31.4382 25.7329 31.4527 25.4855V25.4819Z" fill="#D0C8BA"/>
<path d="M63.5475 9.73483L60.1202 13.2766L61.2092 14.2698L64.5673 10.7917L67.9327 14.2698L69.0181 13.2766L65.5908 9.73483L65.609 9.71716H69.7793V8.27148H59.3262V9.71716H63.5257L63.5475 9.73483Z" fill="#231815"/>
<path d="M70.0435 15.4434H59.0586V16.8926H63.717V19.1866H65.3196V16.8926H70.0435V15.4434Z" fill="#231815"/>
<path d="M42.4145 14.2559H44.1591V8.29297H36.7617V9.81641H42.4145V14.2559Z" fill="#231815"/>
<path d="M46.952 7.75195V8.94313H44.916V10.3888H46.952V11.6719H44.916V13.1176H46.952V14.2522H48.4453V7.75195H46.952Z" fill="#231815"/>
<path d="M44.3696 14.9844C42.7707 14.9844 41.4668 16.1508 41.4668 17.593C41.4668 19.0351 42.7707 20.2015 44.3696 20.2015C45.9686 20.2015 47.2761 19.0351 47.2761 17.593C47.2761 16.1508 45.9759 14.9844 44.3696 14.9844ZM44.3842 18.8301C43.6558 18.8301 43.0694 18.2999 43.0694 17.6495C43.0694 16.9991 43.6558 16.4689 44.3842 16.4689C45.1127 16.4689 45.6991 16.9991 45.6991 17.6495C45.6991 18.2999 45.1127 18.8301 44.3842 18.8301Z" fill="#231815"/>
<path d="M90.2178 8.22656H88.6152V19.1487H90.2178V8.22656Z" fill="#231815"/>
<path d="M82.1371 8.28516L79.125 17.1996L80.56 17.5813L82.7636 11.074L84.9671 17.5813L86.4022 17.1996L83.39 8.28516H82.1371Z" fill="#231815"/>
</g>
<defs>
<clipPath id="clip0_222_75609">
<rect width="89.8026" height="27.945" fill="white" transform="translate(0.599609)"/>
</clipPath>
</defs>
</svg>
