<svg width="14" height="15" viewBox="0 0 14 15" fill="none" xmlns="http://www.w3.org/2000/svg">
<g id="Icon">
<circle id="Ellipse 157" cx="7" cy="7.5" r="6.75" fill="#52B597"/>
<path id="Icon (Stroke)" fill-rule="evenodd" clip-rule="evenodd" d="M7.00039 4.56641C7.33176 4.56641 7.60039 4.83504 7.60039 5.16641V5.19375C7.60039 5.52512 7.33176 5.79375 7.00039 5.79375C6.66902 5.79375 6.40039 5.52512 6.40039 5.19375V5.16641C6.40039 4.83504 6.66902 4.56641 7.00039 4.56641ZM7.00039 6.89974C7.33176 6.89974 7.60039 7.16837 7.60039 7.49974V10.6109C7.60039 10.9422 7.33176 11.2109 7.00039 11.2109C6.66902 11.2109 6.40039 10.9422 6.40039 10.6109V7.49974C6.40039 7.16837 6.66902 6.89974 7.00039 6.89974Z" fill="white"/>
</g>
</svg>
