<svg width="46" height="46" viewBox="0 0 46 46" fill="none" xmlns="http://www.w3.org/2000/svg"><g><path style="opacity:1" fill="#A06CD5" d="M 28.5,4.5 C 35.4434,4.25893 36.1101,6.09226 30.5,10C 32,11.5 33.5,13 35,14.5C 39.3565,8.58371 41.0231,9.25038 40,16.5C 37.5271,20.8951 33.6938,23.0618 28.5,23C 23.4712,28.6921 18.4712,34.3588 13.5,40C 8.64775,40.8188 5.64775,38.8188 4.5,34C 4.83333,32.8333 5.16667,31.6667 5.5,30.5C 9.83333,27 14.1667,23.5 18.5,20C 16.8333,18.3333 15.1667,16.6667 13.5,15C 9.91018,15.6544 7.24351,14.1544 5.5,10.5C 10.5415,3.90846 14.0415,4.90846 16,13.5C 17.5707,15.9229 19.7374,17.2562 22.5,17.5C 21.975,11.8295 23.975,7.49617 28.5,4.5 Z"/></g>
<g><path style="opacity:1" fill="#A06CD5" d="M 29.5,25.5 C 33.8526,26.3186 37.3526,28.652 40,32.5C 40.5453,39.2991 37.712,41.4658 31.5,39C 29.6667,37.1667 27.8333,35.3333 26,33.5C 25.3333,32.5 25.3333,31.5 26,30.5C 27.8022,29.2107 28.9688,27.5441 29.5,25.5 Z"/></g>
</svg>
