<svg width="46" height="46" viewBox="0 0 46 46" fill="none" xmlns="http://www.w3.org/2000/svg"><g id="file-search-02"><path id="Icon (Stroke)" fill-rule="evenodd" clip-rule="evenodd" d="M4.25018 9.19957C4.2502 5.83065 6.98125 3.09961 10.3502 3.09961H31.0507C34.4196 3.09961 37.1507 5.83067 37.1507 9.19961V18.3996C37.1507 19.228 36.4791 19.8996 35.6507 19.8996C34.8223 19.8996 34.1507 19.228 34.1507 18.3996V9.19961C34.1507 7.48753 32.7628 6.09961 31.0507 6.09961H10.3502C8.6381 6.09961 7.25019 7.48752 7.25018 9.19959L7.25 36.7995C7.24999 38.5116 8.6379 39.8995 10.35 39.8995H21.85C22.6784 39.8995 23.35 40.5711 23.35 41.3995C23.35 42.2279 22.6784 42.8995 21.85 42.8995H10.35C6.98103 42.8995 4.24998 40.1684 4.25 36.7995L4.25018 9.19957ZM12.3007 13.7996C12.3007 12.9712 12.9723 12.2996 13.8007 12.2996H27.6007C28.4291 12.2996 29.1007 12.9712 29.1007 13.7996C29.1007 14.628 28.4291 15.2996 27.6007 15.2996H13.8007C12.9723 15.2996 12.3007 14.628 12.3007 13.7996ZM12.3007 20.6996C12.3007 19.8712 12.9723 19.1996 13.8007 19.1996H27.6007C28.4291 19.1996 29.1007 19.8712 29.1007 20.6996C29.1007 21.528 28.4291 22.1996 27.6007 22.1996H13.8007C12.9723 22.1996 12.3007 21.528 12.3007 20.6996ZM12.3007 27.5996C12.3007 26.7712 12.9723 26.0996 13.8007 26.0996H20.7007C21.5291 26.0996 22.2007 26.7712 22.2007 27.5996C22.2007 28.428 21.5291 29.0996 20.7007 29.0996H13.8007C12.9723 29.0996 12.3007 28.428 12.3007 27.5996ZM33.35 29.0996C31.0028 29.0996 29.1 31.0024 29.1 33.3496C29.1 35.6968 31.0028 37.5996 33.35 37.5996C35.6972 37.5996 37.6 35.6968 37.6 33.3496C37.6 31.0024 35.6972 29.0996 33.35 29.0996ZM26.1 33.3496C26.1 29.3455 29.3459 26.0996 33.35 26.0996C37.3541 26.0996 40.6 29.3455 40.6 33.3496C40.6 34.809 40.1688 36.1676 39.4269 37.3052L41.3107 39.1889C41.8964 39.7747 41.8964 40.7245 41.3107 41.3103C40.7249 41.8961 39.7751 41.8961 39.1893 41.3103L37.3055 39.4265C36.168 40.1684 34.8094 40.5996 33.35 40.5996C29.3459 40.5996 26.1 37.3537 26.1 33.3496Z" fill="#7AAAD1"/></g></svg>
