<svg width="46" height="46" viewBox="0 0 46 46" fill="none" xmlns="http://www.w3.org/2000/svg"><g id="map-02"><path id="Icon (Stroke)" fill-rule="evenodd" clip-rule="evenodd" d="M34.5104 6.29199C31.5599 6.29199 29.313 8.53382 29.313 11.1253C29.313 11.8116 29.5959 12.6907 30.1683 13.7132C30.7288 14.7143 31.4962 15.7287 32.2961 16.6531C33.0914 17.5724 33.8913 18.3713 34.4945 18.9417C34.4998 18.9467 34.5051 18.9517 34.5104 18.9567C34.5156 18.9517 34.5209 18.9467 34.5262 18.9417C35.1294 18.3713 35.9293 17.5724 36.7247 16.6531C37.5245 15.7287 38.2919 14.7143 38.8524 13.7132C39.4248 12.6907 39.7077 11.8116 39.7077 11.1253C39.7077 8.53382 37.4608 6.29199 34.5104 6.29199ZM34.5104 20.9772C33.5452 22.1254 33.545 22.1252 33.5447 22.125L33.5423 22.123L33.537 22.1185L33.5192 22.1034C33.5042 22.0906 33.483 22.0725 33.456 22.0493C33.4021 22.0029 33.325 21.9358 33.2281 21.85C33.0343 21.6783 32.7605 21.4309 32.4333 21.1214C31.7807 20.5043 30.9063 19.6319 30.0273 18.616C29.1529 17.6053 28.2459 16.4206 27.5506 15.1787C26.8673 13.9581 26.313 12.5502 26.313 11.1253C26.313 6.72122 30.0632 3.29199 34.5104 3.29199C38.9575 3.29199 42.7077 6.72122 42.7077 11.1253C42.7077 12.5502 42.1534 13.9581 41.4701 15.1787C40.7748 16.4206 39.8679 17.6053 38.9934 18.616C38.1144 19.6319 37.24 20.5043 36.5874 21.1214C36.2602 21.4309 35.9864 21.6783 35.7926 21.85C35.6957 21.9358 35.6186 22.0029 35.5647 22.0493C35.5377 22.0725 35.5165 22.0906 35.5015 22.1034L35.4837 22.1185L35.4767 22.1244C35.4764 22.1247 35.4755 22.1254 34.5104 20.9772ZM34.5104 20.9772L35.4755 22.1254C34.9176 22.5944 34.1027 22.594 33.5447 22.125L34.5104 20.9772ZM5.0602 9.87309C6.42337 8.31683 8.45082 7.33829 10.7004 7.33829H20.5494C21.3778 7.33829 22.0494 8.00986 22.0494 8.83829C22.0494 9.66672 21.3778 10.3383 20.5494 10.3383H10.7004C9.86235 10.3383 9.08339 10.5607 8.42061 10.9442L36.0059 37.875C36.4947 37.1924 36.7776 36.3697 36.7776 35.4962V26.9276C36.7776 26.0992 37.4492 25.4276 38.2776 25.4276C39.106 25.4276 39.7776 26.0992 39.7776 26.9276V35.4962C39.7776 39.5271 36.412 42.7087 32.3682 42.7087H10.7004C6.65665 42.7087 3.29102 39.5271 3.29102 35.4962V14.5507C3.29102 12.7616 3.96174 11.1271 5.0602 9.87309ZM33.4579 39.5801L21.5973 28.0009C21.5955 28.0026 21.5937 28.0044 21.5919 28.0061L9.61724 39.5816C9.96241 39.6645 10.325 39.7087 10.7004 39.7087H32.3682C32.7459 39.7087 33.1108 39.6639 33.4579 39.5801ZM7.0642 37.8771L19.4498 25.9043L6.50072 13.2625C6.36418 13.6692 6.29102 14.102 6.29102 14.5507V35.4962C6.29102 36.3706 6.5745 37.1941 7.0642 37.8771ZM34.5104 9.64436C35.3388 9.64436 36.0104 10.3159 36.0104 11.1444V11.2661C36.0104 12.0945 35.3388 12.7661 34.5104 12.7661C33.6819 12.7661 33.0104 12.0945 33.0104 11.2661V11.1444C33.0104 10.3159 33.6819 9.64436 34.5104 9.64436Z" fill="#7AAAD1"/></g></svg>
