<svg width="46" height="46" viewBox="0 0 46 46" fill="none" xmlns="http://www.w3.org/2000/svg"><g id="computer"><path id="Icon (Stroke)" fill-rule="evenodd" clip-rule="evenodd" d="M3.09961 11.5004C3.09961 8.13145 5.83067 5.40039 9.19961 5.40039H36.7996C40.1685 5.40039 42.8996 8.13145 42.8996 11.5004V27.6004C42.8996 30.9693 40.1685 33.7004 36.7996 33.7004H24.4996V36.8004C24.4996 37.0945 24.415 37.3688 24.2687 37.6004H29.8996C30.728 37.6004 31.3996 38.272 31.3996 39.1004C31.3996 39.9288 30.728 40.6004 29.8996 40.6004H16.0996C15.2712 40.6004 14.5996 39.9288 14.5996 39.1004C14.5996 38.272 15.2712 37.6004 16.0996 37.6004H21.7305C21.5843 37.3688 21.4996 37.0945 21.4996 36.8004V33.7004H9.19961C5.83067 33.7004 3.09961 30.9693 3.09961 27.6004V11.5004ZM36.7996 30.7004C38.5117 30.7004 39.8996 29.3125 39.8996 27.6004V11.5004C39.8996 9.78831 38.5117 8.40039 36.7996 8.40039H9.19961C7.48753 8.40039 6.09961 9.78831 6.09961 11.5004V27.6004C6.09961 29.3125 7.48753 30.7004 9.19961 30.7004H36.7996Z" fill="#7AAAD1"/></g></svg>
