<svg width="46" height="46" viewBox="0 0 46 46" fill="none" xmlns="http://www.w3.org/2000/svg"><g id="pie-chart-02"><path id="Icon (Stroke)" fill-rule="evenodd" clip-rule="evenodd" d="M27.9937 4.05859C27.9937 3.23017 28.6653 2.55859 29.4937 2.55859C36.8976 2.55859 42.8996 8.56061 42.8996 15.9645V16.8803C42.8996 17.7087 42.228 18.3803 41.3996 18.3803H29.4937C28.6653 18.3803 27.9937 17.7087 27.9937 16.8803V4.05859ZM30.9937 5.66591V15.3803H39.8835C39.6083 10.4075 35.8415 6.36579 30.9937 5.66591ZM20.4173 8.87614C12.385 9.63168 6.09961 16.3937 6.09961 24.6237C6.09961 33.3595 13.1814 40.4414 21.9173 40.4414C30.1472 40.4414 36.9091 34.156 37.6647 26.1237H21.9173C21.5194 26.1237 21.1379 25.9656 20.8566 25.6843C20.5753 25.403 20.4172 25.0215 20.4173 24.6236L20.4173 8.87614ZM3.09961 24.6237C3.09961 14.2309 11.5246 5.80589 21.9174 5.80596C22.7458 5.80596 23.4174 6.47754 23.4174 7.30596L23.4173 23.1237H39.2349C40.0633 23.1237 40.7349 23.7952 40.7349 24.6237C40.7349 35.0163 32.31 43.4414 21.9173 43.4414C11.5245 43.4414 3.09961 35.0163 3.09961 24.6237Z" fill="#A06CD5"/></g></svg>
