<svg width="46" height="46" viewBox="0 0 46 46" fill="none" xmlns="http://www.w3.org/2000/svg"><g><path style="opacity:1" fill="#A06CD5" d="M 5.5,7.5 C 8.5,7.5 11.5,7.5 14.5,7.5C 14.5,17.5 14.5,27.5 14.5,37.5C 11.5,37.5 8.5,37.5 5.5,37.5C 5.5,27.5 5.5,17.5 5.5,7.5 Z"/></g>
<g><path style="opacity:1" fill="#A06CD5" d="M 38.5,22.5 C 39.0067,26.8595 39.6734,31.1928 40.5,35.5C 38.1265,36.6937 35.7932,37.027 33.5,36.5C 32.039,30.3324 30.3724,24.3324 28.5,18.5C 28.477,16.0733 27.977,13.74 27,11.5C 26.51,12.7932 26.3433,14.1266 26.5,15.5C 26.8132,22.7546 26.4799,29.9213 25.5,37C 22.9009,37.769 20.4009,37.6023 18,36.5C 17.3333,27.1667 17.3333,17.8333 18,8.5C 23.7824,8.54839 29.6157,8.21506 35.5,7.5C 36.6586,12.4678 37.6586,17.4678 38.5,22.5 Z"/></g>
<g><path style="opacity:1" fill="#A06CD5" d="M 28.5,18.5 C 27.8333,17.5 27.1667,16.5 26.5,15.5C 26.3433,14.1266 26.51,12.7932 27,11.5C 27.977,13.74 28.477,16.0733 28.5,18.5 Z"/></g>
<g><path style="opacity:1" fill="#A06CD5" d="M 38.5,22.5 C 40.6438,26.7057 41.3105,31.0391 40.5,35.5C 39.6734,31.1928 39.0067,26.8595 38.5,22.5 Z"/></g>
</svg>
