<svg xmlns="http://www.w3.org/2000/svg" width="18" height="18" ><path d="M8.121 1.317a6.804 6.804 0 1 0 0 13.609 6.804 6.804 0 0 0 0-13.609ZM0 8.121a8.121 8.121 0 1 1 16.243 0A8.121 8.121 0 0 1 0 8.121Z" clip-rule="evenodd"/><path d="M12.923 12.927a.659.659 0 0 1 .932 0l3.95 3.951a.659.659 0 0 1-.93.931l-3.952-3.95a.659.659 0 0 1 0-.932ZM3.602 8.194a.6.6 0 0 1 .6-.6h8a.6.6 0 0 1 0 1.2h-8a.6.6 0 0 1-.6-.6Z" clip-rule="evenodd"/><path d="M8.2 3.594a.6.6 0 0 1 .6.6v8a.6.6 0 0 1-1.2 0v-8a.6.6 0 0 1 .6-.6Z" clip-rule="evenodd"/></svg>