<svg width="19" height="20" xmlns="http://www.w3.org/2000/svg"><path d="M2.641 4.652 0 1.14 1.2 0l3.697 2.508c.316.214.503.56.503.93v.079c0 .303.126.593.352.807L12.6 10.83l1.097-.348c.431-.136.906-.03 1.227.276l4.028 3.826a1.1 1.1 0 0 1 0 1.612l-1.904 1.808a1.245 1.245 0 0 1-1.696 0l-4.028-3.826a1.1 1.1 0 0 1-.29-1.166l.366-1.042-6.848-6.506a1.233 1.233 0 0 0-.849-.334h-.085a1.22 1.22 0 0 1-.977-.478Zm14.584 10.904-3.6-3.42a.617.617 0 0 0-.425-.167c-.332 0-.6.256-.6.571a.56.56 0 0 0 .175.404l3.6 3.42a.617.617 0 0 0 .425.167c.332 0 .6-.256.6-.571a.557.557 0 0 0-.175-.404Z" fill="currentColor"/><path d="m16.336 5.805 2.543-2.47c.08.29.12.59.12.892 0 1.913-1.596 3.465-3.566 3.465-.312 0-.622-.04-.923-.119l-7.53 7.215c.097.319.146.65.146.981 0 1.912-1.595 3.462-3.562 3.462-1.968 0-3.563-1.55-3.563-3.462 0-1.911 1.595-3.461 3.563-3.461.341 0 .681.048 1.01.142l7.423-7.317a3.37 3.37 0 0 1-.124-.906c0-1.912 1.595-3.461 3.563-3.461.312 0 .624.04.925.119l-2.543 2.471.432 2.029 2.086.42ZM3.564 13.462l-.562.279h.001l-.628.03-.34.513-.53.331-.03.61-.288.544.288.544.03.61.53.331.34.514.628.03.56.279.559-.28.628-.03.34-.513.53-.33.03-.611.288-.544-.287-.543-.03-.61-.529-.332-.34-.513-.629-.03-.56-.28Z" fill="currentColor"/></svg>
