<svg width="20" height="20" viewBox="0 0 0.6 0.6" xmlns="http://www.w3.org/2000/svg"><g fill="none"><path d="M.6 0v.6H0V0h.6ZM.315.581.313.582H.312L.31.581H.309v.012l.003.002.003-.002V.582ZM.322.578.317.58v.011l.005.002h.001L.322.578.321.577Zm-.018 0a.001.001 0 0 0-.001 0L.302.593v.001L.307.592V.581L.302.579Z"/><path d="M.303.113a.05.05 0 0 1 .051.008l.003.003.118.118a.05.05 0 0 1 .013.05L.487.296.428.444a.05.05 0 0 1-.04.031L.261.491l-.01.001L.24.494.234.495.216.499.204.502.185.506.161.512l-.039.01-.016.004A.025.025 0 0 1 .074.498L.075.494.082.466.089.44.095.416.099.397.102.385.106.367.108.356.11.345.127.213A.05.05 0 0 1 .154.175L.158.173.306.114Zm.019.046-.148.06-.015.117-.001.01a.672.672 0 0 1-.01.055l-.004.02.082-.082a.05.05 0 1 1 .035.035L.18.456.19.454.21.45A.686.686 0 0 1 .247.443L.382.426.441.278.323.16ZM.381.077A.025.025 0 0 1 .414.075l.002.002.106.106A.025.025 0 0 1 .489.22L.487.218.381.112a.025.025 0 0 1 0-.035Z" fill="currentColor"/></g></svg>
