<svg width="16" height="16" xmlns="http://www.w3.org/2000/svg"><path d="M6.03 5.282a.734.734 0 0 1-.738.749.73.73 0 0 1-.522-.217L1.6 2.644v2.668c0 .414-.335.719-.768.719a.727.727 0 0 1-.709-.719V.862c0-.434.335-.739.739-.739h4.44c.414 0 .729.305.729.729 0 .423-.315.748-.729.748H2.644l3.17 3.17a.725.725 0 0 1 .217.512Zm5.2.532a.73.73 0 0 1-.522.217.734.734 0 0 1-.739-.749.73.73 0 0 1 .217-.512l3.17-3.17h-2.658c-.414 0-.729-.325-.729-.748 0-.424.315-.729.729-.729h4.44c.404 0 .739.305.739.739v4.45a.727.727 0 0 1-.709.719c-.433 0-.768-.305-.768-.719V2.644l-3.17 3.17ZM5.302 15.877H.862a.725.725 0 0 1-.739-.739v-4.44c0-.394.335-.729.709-.729.433 0 .768.305.768.719v2.668l3.17-3.17a.73.73 0 0 1 .522-.217c.414 0 .739.325.739.749a.725.725 0 0 1-.217.512l-3.17 3.17h2.658c.414 0 .729.325.729.748a.709.709 0 0 1-.729.729Zm9.836 0h-4.44a.709.709 0 0 1-.729-.729c0-.423.315-.748.729-.748h2.658l-3.17-3.17a.725.725 0 0 1-.217-.512c0-.424.325-.749.739-.749a.73.73 0 0 1 .522.217l3.17 3.17v-2.668c0-.414.335-.719.768-.719.374 0 .709.335.709.729v4.44a.725.725 0 0 1-.739.739Z" fill="currentColor"/></svg>
