<svg width="24" height="24" viewBox="0 0 24 24"  xmlns="http://www.w3.org/2000/svg"><path clip-rule="evenodd" d="M1.65 4.534A2.883 2.883 0 0 1 4.534 1.65H8.8a.75.75 0 0 1 0 1.5H4.534c-.764 0-1.384.62-1.384 1.384V8.8a.75.75 0 0 1-1.5 0V4.534ZM14.45 2.4a.75.75 0 0 1 .75-.75h4.267a2.883 2.883 0 0 1 2.883 2.884V8.8a.75.75 0 0 1-1.5 0V4.534c0-.764-.619-1.384-1.383-1.384H15.2a.75.75 0 0 1-.75-.75ZM2.4 14.45a.75.75 0 0 1 .75.75v4.267c0 .764.62 1.383 1.384 1.383H8.8a.75.75 0 0 1 0 1.5H4.534a2.883 2.883 0 0 1-2.884-2.883V15.2a.75.75 0 0 1 .75-.75Zm19.2 0a.75.75 0 0 1 .75.75v4.267a2.883 2.883 0 0 1-2.883 2.883H15.2a.75.75 0 0 1 0-1.5h4.267c.764 0 1.383-.619 1.383-1.383V15.2a.75.75 0 0 1 .75-.75Z"/></svg>