<svg width="18" height="18" xmlns="http://www.w3.org/2000/svg"><path d="M14.04 17.64H3.96c-.922 0-1.68-.758-1.68-1.68V8.424l-.691.691a.68.68 0 0 1-.5.202.734.734 0 0 1-.518-.211.742.742 0 0 1-.211-.519.69.69 0 0 1 .211-.499l7.075-7.066C8.088.581 8.549.36 9 .36c.46 0 .912.22 1.354.662l7.075 7.066a.69.69 0 0 1 .211.5.742.742 0 0 1-.211.518.734.734 0 0 1-.519.21.68.68 0 0 1-.499-.2l-.691-.692v7.536c0 .922-.758 1.68-1.68 1.68ZM3.72 15.96c0 .134.106.24.24.24h3.6v-4.32c0-.528.432-.96.96-.96h.96c.528 0 .96.432.96.96v4.32h3.6c.134 0 .24-.106.24-.24V7.58a1.4 1.4 0 0 0-.422-1.018l-4.59-4.599c-.086-.086-.172-.134-.268-.134-.086 0-.182.048-.269.134L4.142 6.562a1.4 1.4 0 0 0-.422 1.017v8.381Z" fill="currentColor"/></svg>
