<svg width="22" height="20" xmlns="http://www.w3.org/2000/svg"><path fill="currentColor" d="M5.087 10h.001l-3.86 2.105a.677.677 0 0 0-.348.595c0 .25.134.478.348.595l9.9 5.4a.647.647 0 0 0 .62 0l9.9-5.4a.677.677 0 0 0 .35-.595.677.677 0 0 0-.35-.595L17.793 10l-1.403.765 3.548 1.935-8.498 4.635L2.942 12.7l3.548-1.935L5.087 10Z"/><path fill="currentColor" d="M.348 5.433 10.192.29a.67.67 0 0 1 .616 0l9.844 5.143a.64.64 0 0 1 .347.567.641.641 0 0 1-.347.567l-9.844 5.143a.67.67 0 0 1-.616 0L.348 6.567A.641.641 0 0 1 0 6a.64.64 0 0 1 .347-.567ZM10.5 1.586 2.051 6l8.449 4.414L18.95 6 10.5 1.586Z"/></svg>
