<svg
        width="17"
        height="22"
        viewBox="0 0 17 22"
        fill="none"
        xmlns="http://www.w3.org/2000/svg"
>
    <g id="Group 15654">
        <g id="Group 286">
            <path
                    id="Exclude"
                    fill-rule="evenodd"
                    clip-rule="evenodd"
                    d="M8.5 1C12.9625 1 17 4.33789 17 9.50021C17 12.7966 14.3969 16.6736 9.20125 21.1414C8.7975 21.4834 8.19187 21.4834 7.78812 21.1414C2.60312 16.6736 0 12.7966 0 9.50021C0 4.33789 4.0375 1 8.5 1ZM8.49944 13.2351C10.6119 13.2351 12.3244 11.5643 12.3244 9.50328C12.3244 7.44227 10.6119 5.77148 8.49944 5.77148C6.38695 5.77148 4.67444 7.44227 4.67444 9.50328C4.67444 11.5643 6.38695 13.2351 8.49944 13.2351Z"
                    fill="currentColor"
            />
        </g>
    </g>
</svg>
