<svg width="22" height="22" viewBox="0 0 22 22"  xmlns="http://www.w3.org/2000/svg"><path clip-rule="evenodd" d="M10.488.452a.75.75 0 0 1 1.024 0l3.409 3.181a.75.75 0 1 1-1.024 1.097L11.75 2.726v7.297h7.39l-1.494-1.437a.75.75 0 0 1 1.04-1.08l2.834 2.726a.75.75 0 0 1 0 1.081l-2.833 2.727a.75.75 0 0 1-1.04-1.08l1.492-1.437h-7.39v7.751l2.148-2.004a.75.75 0 0 1 1.024 1.096l-3.41 3.182a.75.75 0 0 1-1.023 0l-3.41-3.182a.75.75 0 1 1 1.024-1.096l2.148 2.004v-7.751H2.86l1.494 1.437a.75.75 0 0 1-1.04 1.08L.48 11.313a.75.75 0 0 1 0-1.08l2.833-2.728a.75.75 0 0 1 1.04 1.08l-1.492 1.438h7.389V2.726L8.102 4.73A.75.75 0 0 1 7.08 3.633L10.49.452Z"/></svg>