      <svg
        width="22"
        height="22"
        viewBox="0 0 22 22"
        xmlns="http://www.w3.org/2000/svg"
      >
        <path
          fill-rule="evenodd"
          clip-rule="evenodd"
          d="M2.33413 3.04286C2.54286 2.90377 2.80731 2.87824 3.0388 2.97483L7.78995 4.95717L13.2537 2.96248C13.4198 2.90183 13.602 2.90183 13.7681 2.96248L13.8189 2.98103C13.8299 2.98477 13.8408 2.98876 13.8516 2.99299L19.5072 5.05772C19.8031 5.16575 20 5.4472 20 5.76223V18.3337C20 18.5785 19.8805 18.8079 19.6799 18.9482C19.4793 19.0886 19.2228 19.1221 18.9928 19.0382L13.5109 17.0368L8.02894 19.0382C7.85186 19.1028 7.65692 19.0984 7.48294 19.0258L2.4612 16.9306C2.1819 16.8141 2 16.5411 2 16.2384V3.667C2 3.41617 2.12539 3.18194 2.33413 3.04286ZM14.3278 15.7382L18.5 17.2614V6.28684L14.3281 4.76378V15.7146C14.3281 15.7225 14.328 15.7304 14.3278 15.7382ZM12.8281 4.71467L8.65625 6.23774V17.2123L12.8281 15.6893V4.71467ZM7.15625 17.2642L3.5 15.7387V4.79258L7.15625 6.31809V17.2642Z"
        />
      </svg>