<svg xmlns="http://www.w3.org/2000/svg" width="16" height="19" fill="currentColor"><path fill-rule="evenodd" d="M7.999 12.978c3.33 0 5.998-2.654 5.998-5.889 0-3.235-2.668-5.889-5.998-5.889S2 3.854 2 7.089c0 3.235 2.668 5.889 5.998 5.889Zm0 1.2c3.975 0 7.198-3.174 7.198-7.089C15.197 3.174 11.974 0 7.999 0 4.023 0 .8 3.174.8 7.089c0 3.915 3.222 7.089 7.198 7.089Z" clip-rule="evenodd"></path><path fill-rule="evenodd" d="M7.997 9.6a2.399 2.399 0 1 0 0-4.798 2.399 2.399 0 0 0 0 4.798Zm0 1.2a3.599 3.599 0 1 0 0-7.198 3.599 3.599 0 0 0 0 7.198ZM11.112 16.59a19.223 19.223 0 0 1-6.226 0c.099.104.208.205.327.3.345.276.769.506 1.25.665A4.9 4.9 0 0 0 8 17.8a4.9 4.9 0 0 0 1.536-.244c.482-.16.905-.389 1.25-.665.12-.095.229-.196.327-.3Zm-6.667-.612Zm8.229.44a4.072 4.072 0 0 1-1.14 1.41 5.223 5.223 0 0 1-1.621.867 6.102 6.102 0 0 1-1.914.304 6.102 6.102 0 0 1-1.913-.304 5.225 5.225 0 0 1-1.622-.868 4.072 4.072 0 0 1-1.14-1.409c-.325-.686.37-1.279 1.114-1.129 2.35.474 4.772.474 7.122 0 .744-.15 1.44.443 1.114 1.129Z" clip-rule="evenodd"></path></svg>
