<svg xmlns="http://www.w3.org/2000/svg" width="16" height="16" ><path d="M1.5.883a.6.6 0 0 1 .6.6v12.4h12.4a.6.6 0 1 1 0 1.2h-13a.6.6 0 0 1-.6-.6v-13a.6.6 0 0 1 .6-.6Z" clip-rule="evenodd"/><path d="M6.104 1.52a.6.6 0 0 1 0 .848L4.247 4.225a.6.6 0 0 1-.849-.848l1.858-1.858a.6.6 0 0 1 .848 0Zm8.356 8.359a.6.6 0 0 1 0 .848l-1.858 1.857a.6.6 0 0 1-.848-.848l1.857-1.857a.6.6 0 0 1 .848 0ZM9.818 1.52a.6.6 0 0 1 0 .848L4.247 7.939a.6.6 0 1 1-.849-.848L8.97 1.519a.6.6 0 0 1 .848 0Zm4.642 4.648a.6.6 0 0 1 0 .848l-5.57 5.572a.6.6 0 0 1-.849-.849l5.571-5.571a.6.6 0 0 1 .849 0Zm.001-4.648a.6.6 0 0 1 0 .848L4.247 12.582a.6.6 0 0 1-.849-.848L13.613 1.519a.6.6 0 0 1 .848 0Z" clip-rule="evenodd"/></svg>