<svg width="22" height="22" viewBox="0 0 22 22"  xmlns="http://www.w3.org/2000/svg"><path clip-rule="evenodd" d="M11 2.75c-2.68 0-4.875 2.214-4.875 4.973 0 .782.293 1.69.794 2.654.497.954 1.168 1.905 1.853 2.758A28.926 28.926 0 0 0 11 15.589a28.922 28.922 0 0 0 2.228-2.454c.685-.852 1.356-1.804 1.853-2.758.501-.964.794-1.872.794-2.654 0-2.759-2.195-4.973-4.875-4.973Zm0 13.875-.503.556-.002-.001-.004-.004-.014-.012-.05-.047c-.044-.04-.107-.1-.186-.175a30.432 30.432 0 0 1-2.638-2.867c-.721-.897-1.456-1.933-2.014-3.005-.554-1.064-.964-2.222-.964-3.347C4.625 4.16 7.467 1.25 11 1.25s6.375 2.91 6.375 6.473c0 1.125-.41 2.283-.964 3.346-.558 1.073-1.293 2.11-2.014 3.006a30.453 30.453 0 0 1-2.824 3.042l-.05.046-.014.013-.004.004h-.001L11 16.626Zm0 0 .504.556-.504.455-.503-.455.503-.556Zm0-10.219c-.566 0-1.047.47-1.047 1.078 0 .608.481 1.079 1.047 1.079s1.047-.47 1.047-1.079c0-.607-.48-1.078-1.047-1.078ZM8.453 7.484c0-1.411 1.128-2.578 2.547-2.578 1.419 0 2.547 1.167 2.547 2.578 0 1.412-1.128 2.579-2.547 2.579-1.419 0-2.547-1.167-2.547-2.579Z"/><path clip-rule="evenodd" d="M4.973 12.875a1.25 1.25 0 0 0-1.184.85l-1.31 3.874a1.25 1.25 0 0 0 1.183 1.651h14.674a1.25 1.25 0 0 0 1.184-1.65l-1.31-3.876a1.25 1.25 0 0 0-1.185-.849h-2.088v-1.5h2.088a2.75 2.75 0 0 1 2.605 1.869l1.311 3.875a2.75 2.75 0 0 1-2.605 3.631H3.662a2.75 2.75 0 0 1-2.605-3.631l1.311-3.875a2.75 2.75 0 0 1 2.605-1.869h2.089v1.5H4.973Z"/></svg>