<svg width="24px" height="24px" viewBox="0 0 24 24" xmlns="http://www.w3.org/2000/svg"><path fill="var(--ci-primary-color, currentColor)" d="m13.368 8.391 0.727 -0.183 -0.367 -1.454 -0.727 0.183a8.294 8.294 0 0 0 -6.061 6.26l-0.16 0.733 1.466 0.319 0.16 -0.733A6.823 6.823 0 0 1 13.368 8.391" class="ci-primary"/><path fill="var(--ci-primary-color, currentColor)" d="M17.045 6.931C16.112 3.379 12.874 0.75 9.033 0.75 4.466 0.75 0.75 4.466 0.75 9.033c0 3.873 2.672 7.133 6.269 8.034A8.286 8.286 0 0 0 15.033 23.25c4.567 0 8.283 -3.716 8.283 -8.283 0 -3.808 -2.614 -7.124 -6.271 -8.036M2.25 9.033C2.25 5.293 5.293 2.25 9.033 2.25s6.783 3.043 6.783 6.783 -3.043 6.783 -6.783 6.783S2.25 12.773 2.25 9.033M15.033 21.75c-2.856 0 -5.4 -1.821 -6.368 -4.443 0.122 0.005 0.244 0.009 0.368 0.009a8.297 8.297 0 0 0 1.533 -0.143l4.576 4.576c-0.036 0.001 -0.073 0.001 -0.109 0.001m1.947 -0.285L12.2 16.685a8.292 8.292 0 0 0 2.047 -1.222L19.142 20.359a6.769 6.769 0 0 1 -2.163 1.106Zm3.248 -2.142L15.321 14.417a8.297 8.297 0 0 0 1.308 -2.086L21.453 17.155a6.783 6.783 0 0 1 -1.226 2.168Zm1.575 -3.941 -4.66 -4.66a8.288 8.288 0 0 0 0.173 -1.689c0 -0.154 -0.005 -0.307 -0.013 -0.459a6.799 6.799 0 0 1 4.513 6.394c0 0.139 -0.005 0.277 -0.014 0.415Z" class="ci-primary"/></svg>