<svg width="20" height="20" viewBox="0 0 0.9 0.9" xmlns="http://www.w3.org/2000/svg" transform="scale(-1 1)"><path fill="currentColor" class="clr-i-outline clr-i-outline-path-1" d="M.675.825h-.55a.05.05 0 0 1-.05-.05v-.55a.05.05 0 0 1 .05-.05h.25v.05h-.25v.55h.55v-.25h.05v.25a.05.05 0 0 1-.05.05Z"/><path fill="currentColor" class="clr-i-outline clr-i-outline-path-2" d="M.45.075a.025.025 0 0 0 0 .05h.29L.394.471a.025.025 0 1 0 .035.035L.775.16v.29a.025.025 0 0 0 .05 0V.075Z"/><path d="M0 0h.9v.9H0V0z" /></svg>
