<svg width="18" height="18" viewBox="0 0 18 18"  xmlns="http://www.w3.org/2000/svg"><path clip-rule="evenodd" d="M1.5 15.75a.75.75 0 0 1 .75-.75h2.19a.72.72 0 0 0 .709-.73V3.73a.72.72 0 0 0-.71-.73H2.25a.75.75 0 0 1 0-1.5h2.19c1.229 0 2.209 1.008 2.209 2.23v10.54c0 1.222-.98 2.23-2.21 2.23H2.25a.75.75 0 0 1-.75-.75Zm7.5.75a.75.75 0 0 1-.75-.75v-.045a.75.75 0 0 1 1.5 0v.045a.75.75 0 0 1-.75.75Zm0-3.319a.75.75 0 0 1-.75-.75v-.045a.75.75 0 1 1 1.5 0v.045a.75.75 0 0 1-.75.75Zm0-3.408a.75.75 0 0 1-.75-.75v-.046a.75.75 0 1 1 1.5 0v.046a.75.75 0 0 1-.75.75Zm0-3.364a.75.75 0 0 1-.75-.75v-.045a.75.75 0 1 1 1.5 0v.045a.75.75 0 0 1-.75.75Zm0-3.364a.75.75 0 0 1-.75-.75V2.25a.75.75 0 1 1 1.5 0v.045a.75.75 0 0 1-.75.75Zm3.851 11.226a.72.72 0 0 0 .71.729h2.189a.75.75 0 0 1 0 1.5h-2.19c-1.229 0-2.209-1.008-2.209-2.23V3.73c0-1.222.98-2.23 2.21-2.23h2.189a.75.75 0 0 1 0 1.5h-2.19a.72.72 0 0 0-.709.73v10.54Z"/></svg>