<svg xmlns="http://www.w3.org/2000/svg" width="22" height="22" viewBox="0 0 22 22"><path clip-rule="evenodd" d="m10.99999,2.67611c-4.63299,0 -8.38876,3.72674 -8.38876,8.32392c0,4.59721 3.75578,8.32388 8.38876,8.32388c4.63294,0 8.38877,-3.72667 8.38877,-8.32388c0,-4.59718 -3.75583,-8.32392 -8.38877,-8.32392zm-10.17924,8.32392c0.00001,-5.57838 4.55742,-10.10057 10.17924,-10.10057c5.62189,0 10.17926,4.52217 10.17926,10.10057c0,5.57836 -4.55738,10.10052 -10.17926,10.10052c-5.62184,0 -10.17924,-4.52216 -10.17924,-10.10052zm10.17924,-4.3429c0.49442,0 0.89525,0.39771 0.89525,0.88833l0,0.04049c0,0.4906 -0.40081,0.88833 -0.89525,0.88833c-0.49442,0 -0.89525,-0.39771 -0.89525,-0.88833l0,-0.04049c0,-0.4906 0.40081,-0.88833 0.89525,-0.88833zm0,3.45459c0.49442,0 0.89525,0.39771 0.89525,0.88833l0,4.60608c0,0.49065 -0.40081,0.88833 -0.89525,0.88833c-0.49442,0 -0.89525,-0.39767 -0.89525,-0.88833l0,-4.60608c0,-0.4906 0.40081,-0.88833 0.89525,-0.88833z"/></svg>