<svg width="22" height="22" viewBox="0 0 22 22"  xmlns="http://www.w3.org/2000/svg"><path clip-rule="evenodd" d="M3.301 4.47a.35.35 0 0 0-.35.35v11.26c0 .801.65 1.45 1.45 1.45h6.677a.75.75 0 0 1 0 1.5H4.402a2.95 2.95 0 0 1-2.95-2.95V4.821a1.85 1.85 0 0 1 1.85-1.85h5.24a.75.75 0 0 1 .548.237l2.313 2.47H18.7a1.85 1.85 0 0 1 1.85 1.85v2.922a.75.75 0 1 1-1.5 0V7.528a.35.35 0 0 0-.35-.35h-7.623a.75.75 0 0 1-.548-.237L8.218 4.47H3.3Zm12.65 8.38a2 2 0 1 0 0 4 2 2 0 0 0 0-4Zm-3.5 2a3.5 3.5 0 1 1 6.448 1.888l.882.882a.75.75 0 0 1-1.06 1.06l-.883-.882a3.5 3.5 0 0 1-5.387-2.948Z"/></svg>